<svg width="477" height="458" version="1.1" xmlns="http://www.w3.org/2000/svg" desc="Created with imagetracer.js version 1.2.6" ><path fill="rgb(167,134,243)" stroke="rgb(167,134,243)" stroke-width="1" opacity="0.996078431372549" d="M 113.5 66 L 114 113.5 L 113 113.5 L 113.5 66 Z " /><path fill="rgb(167,134,243)" stroke="rgb(167,134,243)" stroke-width="1" opacity="0.996078431372549" d="M 267.5 66 L 268 112.5 L 267 112.5 L 267.5 66 Z " /><path fill="rgb(167,134,243)" stroke="rgb(167,134,243)" stroke-width="1" opacity="0.996078431372549" d="M 164.5 67 L 165 112.5 L 164 112.5 L 164.5 67 Z " /><path fill="rgb(167,134,243)" stroke="rgb(167,134,243)" stroke-width="1" opacity="0.996078431372549" d="M 216.5 67 L 217 112.5 L 216 112.5 L 216.5 67 Z " /><path fill="rgb(167,134,243)" stroke="rgb(167,134,243)" stroke-width="1" opacity="0.996078431372549" d="M 319.5 68 L 320 111.5 L 319 111.5 L 319.5 68 Z " /><path fill="rgb(167,134,243)" stroke="rgb(167,134,243)" stroke-width="1" opacity="0.996078431372549" d="M 370.5 68 L 371 112.5 L 370 112.5 L 370.5 68 Z " /><path fill="rgb(167,134,243)" stroke="rgb(167,134,243)" stroke-width="1" opacity="0.996078431372549" d="M 395.5 89 Q 407.7 90.8 414 98.5 L 421 112.5 L 421 149.5 L 418.5 152 L 388.5 152 L 387.5 153 L 52.5 153 L 52.5 152 L 340.5 152 Q 342.5 148.8 347 149 L 347 146 Q 350 147.3 349 143.5 L 356 135.5 L 356 133 L 360 132 Q 358.2 126.8 365.5 129 Q 372.9 126.9 377 121.5 L 380 115.5 Q 379.1 105.6 381 100 L 389 95.5 L 391 90 L 395.5 89 Z " /><path fill="rgb(167,134,243)" stroke="rgb(167,134,243)" stroke-width="1" opacity="0.996078431372549" d="M 90.5 94 L 91 101.5 L 90 101.5 L 90.5 94 Z " /><path fill="rgb(167,134,243)" stroke="rgb(167,134,243)" stroke-width="1" opacity="0.996078431372549" d="M 141.5 94 L 142 102.5 L 141 102.5 L 141.5 94 Z " /><path fill="rgb(167,134,243)" stroke="rgb(167,134,243)" stroke-width="1" opacity="0.996078431372549" d="M 192.5 94 L 193 103.5 L 192 103.5 L 192.5 94 Z " /><path fill="rgb(167,134,243)" stroke="rgb(167,134,243)" stroke-width="1" opacity="0.996078431372549" d="M 295.5 94 L 296 102.5 L 295 102.5 L 295.5 94 Z " /><path fill="rgb(167,134,243)" stroke="rgb(167,134,243)" stroke-width="1" opacity="0.996078431372549" d="M 346.5 94 L 347 99.5 L 346 99.5 L 346.5 94 Z " /><path fill="rgb(167,134,243)" stroke="rgb(167,134,243)" stroke-width="1" opacity="0.996078431372549" d="M 244.5 95 L 245 99.5 L 244 99.5 L 244.5 95 Z " /><path fill="rgb(167,134,243)" stroke="rgb(167,134,243)" stroke-width="1" opacity="0.996078431372549" d="M 89.5 104 L 90 107.5 L 89 107.5 L 89.5 104 Z " /><path fill="rgb(167,134,243)" stroke="rgb(167,134,243)" stroke-width="1" opacity="0.996078431372549" d="M 140.5 105 L 141 115.5 L 140 115.5 L 140.5 105 Z " /><path fill="rgb(167,134,243)" stroke="rgb(167,134,243)" stroke-width="1" opacity="0.996078431372549" d="M 191.5 106 L 192 114.5 L 191 114.5 L 191.5 106 Z " /><path fill="rgb(167,134,243)" stroke="rgb(167,134,243)" stroke-width="1" opacity="0.996078431372549" d="M 242.5 106 L 243 114.5 L 242 114.5 L 242.5 106 Z " /><path fill="rgb(167,134,243)" stroke="rgb(167,134,243)" stroke-width="1" opacity="0.996078431372549" d="M 89.5 113 L 90 116.5 L 89 116.5 L 89.5 113 Z " /><path fill="rgb(167,134,243)" stroke="rgb(167,134,243)" stroke-width="1" opacity="0.996078431372549" d="M 369.5 114 L 368.5 116 L 369.5 114 Z " /><path fill="rgb(167,134,243)" stroke="rgb(167,134,243)" stroke-width="1" opacity="0.996078431372549" d="M 162.5 116 L 161.5 118 L 162.5 116 Z " /><path fill="rgb(167,134,243)" stroke="rgb(167,134,243)" stroke-width="1" opacity="0.996078431372549" d="M 214.5 116 L 213.5 118 L 214.5 116 Z " /><path fill="rgb(167,134,243)" stroke="rgb(167,134,243)" stroke-width="1" opacity="0.996078431372549" d="M 265.5 116 L 264.5 118 L 265.5 116 Z " /><path fill="rgb(167,134,243)" stroke="rgb(167,134,243)" stroke-width="1" opacity="0.996078431372549" d="M 104.5 118 L 109 118.5 L 104.5 119 L 104.5 118 Z " /><path fill="rgb(167,134,243)" stroke="rgb(167,134,243)" stroke-width="1" opacity="0.996078431372549" d="M 154.5 118 L 160 118.5 L 154.5 119 L 154.5 118 Z " /><path fill="rgb(167,134,243)" stroke="rgb(167,134,243)" stroke-width="1" opacity="0.996078431372549" d="M 206.5 118 L 212 118.5 L 206.5 119 L 206.5 118 Z " /><path fill="rgb(167,134,243)" stroke="rgb(167,134,243)" stroke-width="1" opacity="0.996078431372549" d="M 257.5 118 L 263 118.5 L 257.5 119 L 257.5 118 Z " /><path fill="rgb(167,134,243)" stroke="rgb(167,134,243)" stroke-width="1" opacity="0.996078431372549" d="M 309.5 118 L 314 118.5 L 309.5 119 L 309.5 118 Z " /><path fill="rgb(167,134,243)" stroke="rgb(167,134,243)" stroke-width="1" opacity="0.996078431372549" d="M 360.5 118 L 366 118.5 L 360.5 119 L 360.5 118 Z " /><path fill="rgb(167,134,243)" stroke="rgb(167,134,243)" stroke-width="1" opacity="0.996078431372549" d="M 194.5 121 L 198.5 126 L 194.5 121 Z " /><path fill="rgb(167,134,243)" stroke="rgb(167,134,243)" stroke-width="1" opacity="0.996078431372549" d="M 92.5 122 L 96.5 127 L 92.5 122 Z " /><path fill="rgb(167,134,243)" stroke="rgb(167,134,243)" stroke-width="1" opacity="0.996078431372549" d="M 143.5 122 L 144.5 124 L 143.5 122 Z " /><path fill="rgb(167,134,243)" stroke="rgb(167,134,243)" stroke-width="1" opacity="0.996078431372549" d="M 246.5 122 L 249.5 126 L 246.5 122 Z " /><path fill="rgb(167,134,243)" stroke="rgb(167,134,243)" stroke-width="1" opacity="0.996078431372549" d="M 349.5 122 L 354.5 128 L 349.5 122 Z " /><path fill="rgb(167,134,243)" stroke="rgb(167,134,243)" stroke-width="1" opacity="0.996078431372549" d="M 301.5 125 L 302.5 127 L 301.5 125 Z " /><path fill="rgb(167,134,243)" stroke="rgb(167,134,243)" stroke-width="1" opacity="0.996078431372549" d="M 334.5 165 L 419.5 165 L 422 167.5 L 421 175.5 L 419.5 177 L 415 177 L 415 180 L 412 180 Q 413.5 183.8 410.5 183 L 409 182.5 Q 410.1 185.8 407.5 185 L 408 183.5 L 409 180.5 L 406.5 178 L 365.5 178 L 364.5 179 L 341 179 L 340 228.5 Q 340.8 231.8 345.5 231 L 346.5 230 L 354 230 L 352.5 234 L 348.5 237 L 318.5 237 L 317.5 238 L 63.5 238 L 63.5 237 L 275.5 237 Q 278 231.5 284.5 230 L 334 230 L 334 179 L 273.5 179 L 273.5 178 L 323.5 178 L 325 176.5 Q 323.8 169.3 328.5 168 L 334.5 165 Z " /><path fill="rgb(167,134,243)" stroke="rgb(167,134,243)" stroke-width="1" opacity="0.996078431372549" d="M 63.5 178 L 126 178.5 L 63.5 179 L 63.5 178 Z " /><path fill="rgb(167,134,243)" stroke="rgb(167,134,243)" stroke-width="1" opacity="0.996078431372549" d="M 136.5 178 L 195 178.5 L 136.5 179 L 136.5 178 Z " /><path fill="rgb(167,134,243)" stroke="rgb(167,134,243)" stroke-width="1" opacity="0.996078431372549" d="M 205.5 178 L 264 178.5 L 205.5 179 L 205.5 178 Z " /><path fill="rgb(167,134,243)" stroke="rgb(167,134,243)" stroke-width="1" opacity="0.996078431372549" d="M 61.5 180 L 62 228.5 L 61 228.5 L 61.5 180 Z " /><path fill="rgb(167,134,243)" stroke="rgb(167,134,243)" stroke-width="1" opacity="0.996078431372549" d="M 127.5 180 L 128 183.5 L 127 183.5 L 127.5 180 Z " /><path fill="rgb(167,134,243)" stroke="rgb(167,134,243)" stroke-width="1" opacity="0.996078431372549" d="M 134.5 180 L 135 228.5 L 134 228.5 L 134.5 180 Z " /><path fill="rgb(167,134,243)" stroke="rgb(167,134,243)" stroke-width="1" opacity="0.996078431372549" d="M 196.5 180 L 197 183.5 L 196 183.5 L 196.5 180 Z " /><path fill="rgb(167,134,243)" stroke="rgb(167,134,243)" stroke-width="1" opacity="0.996078431372549" d="M 203.5 180 L 204 182.5 L 203 182.5 L 203.5 180 Z " /><path fill="rgb(167,134,243)" stroke="rgb(167,134,243)" stroke-width="1" opacity="0.996078431372549" d="M 265.5 180 L 266 183.5 L 265 183.5 L 265.5 180 Z " /><path fill="rgb(167,134,243)" stroke="rgb(167,134,243)" stroke-width="1" opacity="0.996078431372549" d="M 271.5 180 L 272 230 L 277 230.5 L 272.5 231 L 271 229.5 L 271.5 180 Z " /><path fill="rgb(167,134,243)" stroke="rgb(167,134,243)" stroke-width="1" opacity="0.996078431372549" d="M 202.5 185 L 203 196.5 L 202 196.5 L 202.5 185 Z " /><path fill="rgb(167,134,243)" stroke="rgb(167,134,243)" stroke-width="1" opacity="0.996078431372549" d="M 368.5 192 Q 379.1 191 382 197.5 L 384 206.5 L 382.5 208 L 379 207.5 Q 379.8 209.8 377.5 209 L 373 214.5 L 373.5 216 L 367.5 217 L 365.5 217 L 361 212.5 Q 357.8 209.2 359 201.5 L 364.5 194 L 368.5 192 Z " /><path fill="rgb(167,134,243)" stroke="rgb(167,134,243)" stroke-width="1" opacity="0.996078431372549" d="M 203.5 199 L 204 228.5 L 203 228.5 L 203.5 199 Z " /><path fill="rgb(167,134,243)" stroke="rgb(167,134,243)" stroke-width="1" opacity="0.996078431372549" d="M 63.5 230 L 67 230.5 L 63.5 231 L 63.5 230 Z " /><path fill="rgb(167,134,243)" stroke="rgb(167,134,243)" stroke-width="1" opacity="0.996078431372549" d="M 136.5 230 L 140 230.5 L 136.5 231 L 136.5 230 Z " /><path fill="rgb(167,134,243)" stroke="rgb(167,134,243)" stroke-width="1" opacity="0.996078431372549" d="M 205.5 230 L 209 230.5 L 205.5 231 L 205.5 230 Z " /><path fill="rgb(167,134,243)" stroke="rgb(167,134,243)" stroke-width="1" opacity="0.996078431372549" d="M 61.5 239 L 62 335.5 L 61 335.5 L 61.5 239 Z " /><path fill="rgb(167,134,243)" stroke="rgb(167,134,243)" stroke-width="1" opacity="0.996078431372549" d="M 298.5 251 Q 307 249 309 253.5 Q 308 259 311.5 260 L 317.5 262 Q 319.4 258.4 325.5 259 L 327.5 262 L 322 264 L 322 266.5 L 315.5 276 L 310.5 271 L 302.5 269 Q 292.8 270.8 288 277.5 Q 284.9 281.9 286 290.5 L 288 296.5 L 291 299.5 L 289 300 L 290 304 L 286 304 L 286 305.5 L 286.5 307 Q 284.5 309.8 280 309 L 280 313 L 278.5 313 L 274 308.5 L 274 306.5 Q 278 305.5 277 299.5 L 276 296.5 L 275 293 L 272.5 292 L 269.5 293 Q 265.5 290.5 267 282.5 Q 268.4 279.4 273.5 280 L 276 277.5 L 277 270.5 L 274 264.5 L 282.5 258 L 288.5 262 L 296 259 Q 295 253.3 298.5 251 Z " /><path fill="rgb(167,134,243)" stroke="rgb(167,134,243)" stroke-width="1" opacity="0.996078431372549" d="M 89.5 261 L 90 304.5 L 89 304.5 L 89.5 261 Z " /><path fill="rgb(167,134,243)" stroke="rgb(167,134,243)" stroke-width="1" opacity="0.996078431372549" d="M 254.5 262 L 259 264.5 L 256.5 269 L 249.5 273 L 245 269.5 L 247 269 Q 245.9 266.3 248.5 267 L 254.5 262 Z " /><path fill="rgb(167,134,243)" stroke="rgb(167,134,243)" stroke-width="1" opacity="0.996078431372549" d="M 233.5 266 L 237 266.5 L 233.5 267 L 233.5 266 Z " /><path fill="rgb(167,134,243)" stroke="rgb(167,134,243)" stroke-width="1" opacity="0.996078431372549" d="M 156.5 269 L 161 269.5 L 156.5 270 L 156.5 269 Z " /><path fill="rgb(167,134,243)" stroke="rgb(167,134,243)" stroke-width="1" opacity="0.996078431372549" d="M 223.5 270 L 218.5 276 L 223.5 270 Z " /><path fill="rgb(167,134,243)" stroke="rgb(167,134,243)" stroke-width="1" opacity="0.996078431372549" d="M 183.5 271 L 184 274.5 L 183 274.5 L 183.5 271 Z " /><path fill="rgb(167,134,243)" stroke="rgb(167,134,243)" stroke-width="1" opacity="0.996078431372549" d="M 149.5 272 L 144.5 278 L 149.5 272 Z " /><path fill="rgb(167,134,243)" stroke="rgb(167,134,243)" stroke-width="1" opacity="0.996078431372549" d="M 167.5 272 L 171.5 277 L 167.5 272 Z " /><path fill="rgb(167,134,243)" stroke="rgb(167,134,243)" stroke-width="1" opacity="0.996078431372549" d="M 185.5 278 L 186.5 280 L 185.5 278 Z " /><path fill="rgb(167,134,243)" stroke="rgb(167,134,243)" stroke-width="1" opacity="0.996078431372549" d="M 215.5 283 L 216 290.5 L 215 290.5 L 215.5 283 Z " /><path fill="rgb(167,134,243)" stroke="rgb(167,134,243)" stroke-width="1" opacity="0.996078431372549" d="M 141.5 285 L 142 287.5 L 141 287.5 L 141.5 285 Z " /><path fill="rgb(167,134,243)" stroke="rgb(167,134,243)" stroke-width="1" opacity="0.996078431372549" d="M 193.5 285 L 194 289.5 L 193 289.5 L 193.5 285 Z " /><path fill="rgb(167,134,243)" stroke="rgb(167,134,243)" stroke-width="1" opacity="0.996078431372549" d="M 246.5 286 L 257.5 286 L 259 287.5 L 259 306.5 L 258 310.5 L 254.5 314 L 239.5 319 L 229.5 319 L 213 313 L 211 309.5 L 214 307.5 L 216.5 304 L 218.5 305 L 220 300.5 L 219.5 299 Q 224.8 307.2 239.5 306 L 245 304 L 245 287.5 L 246.5 286 Z " /><path fill="rgb(167,134,243)" stroke="rgb(167,134,243)" stroke-width="1" opacity="0.996078431372549" d="M 142.5 290 L 143 292.5 L 142 292.5 L 142.5 290 Z " /><path fill="rgb(167,134,243)" stroke="rgb(167,134,243)" stroke-width="1" opacity="0.996078431372549" d="M 144.5 296 L 149.5 302 L 144.5 296 Z " /><path fill="rgb(167,134,243)" stroke="rgb(167,134,243)" stroke-width="1" opacity="0.996078431372549" d="M 91.5 306 L 95 306.5 L 91.5 307 L 91.5 306 Z " /><path fill="rgb(167,134,243)" stroke="rgb(167,134,243)" stroke-width="1" opacity="0.996078431372549" d="M 185.5 309 L 183.5 312 L 185.5 309 Z " /><path fill="rgb(167,134,243)" stroke="rgb(167,134,243)" stroke-width="1" opacity="0.996078431372549" d="M 120.5 311 L 121 315.5 L 120 315.5 L 120.5 311 Z " /><path fill="rgb(167,134,243)" stroke="rgb(167,134,243)" stroke-width="1" opacity="0.996078431372549" d="M 175.5 312 L 176.5 314 L 175.5 312 Z " /><path fill="rgb(167,134,243)" stroke="rgb(167,134,243)" stroke-width="1" opacity="0.996078431372549" d="M 178.5 314 L 181 314.5 L 178.5 315 L 178.5 314 Z " /><path fill="rgb(167,134,243)" stroke="rgb(167,134,243)" stroke-width="1" opacity="0.996078431372549" d="M 80.5 317 L 119 317.5 L 80.5 318 L 80.5 317 Z " /><path fill="rgb(167,134,243)" stroke="rgb(167,134,243)" stroke-width="1" opacity="0.996078431372549" d="M 156.5 321 L 163 321.5 L 156.5 322 L 156.5 321 Z " /><path fill="rgb(167,134,243)" stroke="rgb(167,134,243)" stroke-width="1" opacity="0.996078431372549" d="M 63.5 337 L 67 337.5 L 63.5 338 L 63.5 337 Z " /><path fill="rgb(167,134,243)" stroke="rgb(167,134,243)" stroke-width="1" opacity="0.996078431372549" d="M 196.5 337 L 256 337.5 L 251 339.5 Q 251.5 343.5 248.5 344 L 204 345 L 203 393.5 L 192.5 406 L 188 408.5 Q 189.5 412.9 186.5 412 L 184.5 414 L 160.5 414 L 159.5 415 L 75.5 415 L 75.5 414 L 122.5 414 L 136 402.5 L 134 399.5 L 134 346.5 L 135 346.5 L 135 400 L 196 400 L 196 345 L 136.5 345 L 136.5 344 L 185.5 344 L 188 340.5 L 190.5 338 Q 195.3 339.2 196.5 337 Z " /><path fill="rgb(167,134,243)" stroke="rgb(167,134,243)" stroke-width="1" opacity="0.996078431372549" d="M 63.5 344 L 126 344.5 L 63.5 345 L 63.5 344 Z " /><path fill="rgb(167,134,243)" stroke="rgb(167,134,243)" stroke-width="1" opacity="0.996078431372549" d="M 61.5 346 L 62 387.5 L 61 387.5 L 61.5 346 Z " /><path fill="rgb(167,134,243)" stroke="rgb(167,134,243)" stroke-width="1" opacity="0.996078431372549" d="M 127.5 346 L 128 349.5 L 127 349.5 L 127.5 346 Z " /><path fill="rgb(167,134,243)" stroke="rgb(167,134,243)" stroke-width="1" opacity="0.996078431372549" d="M 232.5 358 L 236 358.5 L 230 364.5 L 227.5 371 L 225.5 371 L 221.5 373 L 221 368.5 Q 222.6 361.6 228.5 359 L 232.5 358 Z " /><path fill="rgb(167,134,243)" stroke="rgb(167,134,243)" stroke-width="1" opacity="0.996078431372549" d="M 169.5 360 L 171.5 361 L 172.5 360 L 176 363.5 L 178 368.5 L 178 374.5 L 172.5 382 L 164.5 385 Q 157.9 384.1 155 379.5 L 155 377 Q 158 378 157 375 L 162 375 L 162 370.5 L 166.5 362 L 169.5 360 Z " /><path fill="rgb(167,134,243)" stroke="rgb(167,134,243)" stroke-width="1" opacity="0.996078431372549" d="M 106.5 379 L 105.5 381 L 106.5 379 Z " /><path fill="rgb(167,134,243)" stroke="rgb(167,134,243)" stroke-width="1" opacity="0.996078431372549" d="M 65.5 395 L 66.5 397 L 65.5 395 Z " /><path fill="rgb(167,134,243)" stroke="rgb(167,134,243)" stroke-width="1" opacity="0.996078431372549" d="M 58.5 407 L 59.5 409 L 58.5 407 Z " /><path fill="rgb(167,134,243)" stroke="rgb(167,134,243)" stroke-width="1" opacity="0.996078431372549" d="M 69.5 413 L 73 413.5 L 69.5 414 L 69.5 413 Z " /><path fill="rgb(0,0,0)" stroke="rgb(0,0,0)" stroke-width="1" opacity="0" d="M 0 0 L 477 0 L 477 458 L 0 458 L 0 0 Z M 105 60 L 103 61 L 98 68 L 98 112 L 100 117 L 104 119 L 108 124 L 117 123 L 119 120 L 119 71 L 118 69 L 116 67 L 113 64 L 109 60 L 105 60 Z M 156 60 L 149 66 L 149 114 L 154 119 Q 156 118 155 121 Q 157 126 166 124 L 170 119 L 170 72 L 166 66 Q 163 67 164 65 Q 162 60 156 60 Z M 207 60 L 205 61 L 201 66 L 201 114 L 206 119 Q 208 118 207 121 Q 209 126 218 124 L 222 119 L 222 72 L 218 66 Q 215 67 216 65 Q 214 59 207 60 Z M 259 60 L 257 61 L 251 69 L 251 111 Q 252 116 257 119 Q 259 118 258 121 Q 260 126 269 124 L 273 119 L 273 71 L 263 60 L 259 60 Z M 311 60 L 309 61 L 303 68 L 303 112 L 305 117 L 309 119 L 313 124 L 322 123 L 325 118 L 325 73 L 323 69 L 320 66 L 318 64 Q 316 60 311 60 Z M 361 60 L 359 61 L 354 69 L 354 111 L 355 115 L 365 124 L 372 124 L 376 119 L 376 73 L 374 69 L 371 66 L 369 64 Q 367 59 361 60 Z M 71 89 L 60 94 Q 50 100 47 114 L 47 151 L 51 153 Q 53 152 52 156 L 56 158 L 424 158 L 427 155 L 427 122 L 426 117 L 423 109 L 416 100 Q 413 101 414 99 Q 408 92 398 89 L 381 89 L 379 91 L 379 105 L 380 106 Q 382 117 377 122 L 369 128 L 357 128 L 355 127 L 352 122 L 352 96 Q 351 93 347 94 Q 348 90 346 89 L 329 89 L 327 91 L 327 103 L 328 104 Q 330 116 325 122 Q 321 131 306 128 L 303 126 L 300 117 L 301 96 Q 300 93 296 94 Q 297 90 295 89 L 278 89 L 276 91 L 276 104 L 277 105 Q 279 115 275 121 L 266 128 L 254 128 L 248 121 Q 247 111 250 106 L 249 96 Q 248 93 244 94 Q 245 90 243 89 L 227 89 L 225 91 L 225 105 L 226 106 Q 227 115 224 121 L 215 128 L 203 128 L 199 126 L 197 121 L 197 111 L 198 110 L 198 96 L 197 94 Q 191 96 193 91 L 192 89 L 175 89 L 173 91 Q 175 96 172 98 L 174 105 Q 176 116 171 122 L 163 128 L 152 128 L 150 127 L 146 122 L 147 96 Q 146 93 142 94 Q 143 90 141 89 L 124 89 L 122 91 L 122 103 L 123 104 Q 125 114 122 120 L 112 128 L 100 128 L 97 127 L 94 117 L 96 108 L 96 96 L 95 94 Q 89 96 91 91 L 90 89 L 71 89 Z M 50 165 L 47 168 L 47 389 Q 49 399 55 406 L 58 407 L 60 411 L 71 418 L 80 420 L 400 420 L 409 418 L 414 415 L 422 407 L 427 393 L 427 173 L 425 170 Q 421 171 422 168 L 420 165 L 50 165 Z " /><path fill="rgb(0,0,0)" stroke="rgb(0,0,0)" stroke-width="1" opacity="0" d="M 67 184 L 127 184 L 127 230 L 67 230 L 67 184 Z " /><path fill="rgb(0,0,0)" stroke="rgb(0,0,0)" stroke-width="1" opacity="0" d="M 140 184 L 196 184 L 196 230 L 140 230 L 140 184 Z " /><path fill="rgb(0,0,0)" stroke="rgb(0,0,0)" stroke-width="1" opacity="0" d="M 209 184 L 265 184 L 265 229 L 262.5 230 L 209 230 L 208 189.5 L 209 184 Z " /><path fill="rgb(0,0,0)" stroke="rgb(0,0,0)" stroke-width="1" opacity="0" d="M 277 184 L 334 184 L 334 230 L 277 230 L 277 184 Z " /><path fill="rgb(0,0,0)" stroke="rgb(0,0,0)" stroke-width="1" opacity="0" d="M 346 184 L 407 184 L 407 230 L 346 230 L 346 184 Z M 369 192 L 365 194 L 359 202 Q 358 209 361 213 L 373 223 Q 383 225 387 219 L 390 212 L 389 205 L 378 193 L 369 192 Z " /><path fill="rgb(0,0,0)" stroke="rgb(0,0,0)" stroke-width="1" opacity="0" d="M 67 243 L 407.5 243 L 408 243.5 L 408 337 L 67.5 337 L 67 336.5 L 67 243 Z M 155 250 L 152 253 L 151 259 L 145 262 L 139 258 Q 132 259 130 265 L 133 271 L 132 278 Q 131 281 126 280 L 123 283 Q 121 291 126 293 Q 129 292 128 296 L 133 300 Q 134 305 130 306 L 130 309 L 142 320 L 148 317 L 151 317 L 154 322 Q 159 320 157 326 L 159 327 L 169 327 L 171 321 L 178 317 Q 182 317 183 320 L 187 320 L 192 314 L 189 308 L 191 299 Q 197 299 199 296 L 198 287 L 194 285 L 193 282 L 189 280 Q 188 274 192 272 L 187 264 Q 184 265 185 263 L 180 258 Q 177 262 170 261 Q 171 256 167 255 Q 164 256 165 254 Q 163 248 155 250 Z M 299 251 Q 295 253 296 259 L 289 262 L 283 258 L 274 265 L 277 271 L 276 278 L 274 280 Q 268 279 267 283 L 268 292 L 272 293 L 273 297 L 277 300 Q 278 306 274 307 L 274 309 L 286 320 L 289 320 L 293 317 L 296 318 L 299 322 Q 302 321 301 325 L 304 327 L 313 327 L 315 321 L 322 317 L 328 320 L 331 320 L 337 314 L 337 312 L 333 307 L 336 298 Q 342 299 343 296 Q 345 287 341 285 Q 337 286 338 283 Q 337 279 333 280 Q 332 274 336 273 L 335 269 L 326 259 Q 319 258 318 262 L 314 261 Q 315 257 312 256 Q 308 257 309 254 Q 307 249 299 251 Z M 232 254 L 222 256 L 215 260 L 205 271 L 201 285 L 202 296 L 208 308 L 220 319 L 234 324 Q 254 325 264 316 L 264 293 L 263 291 Q 257 293 259 288 L 258 286 L 247 286 L 245 288 L 245 304 L 240 306 Q 230 307 226 304 L 221 297 Q 220 287 223 282 Q 228 274 238 272 Q 249 272 254 278 L 257 278 L 261 275 Q 265 275 264 270 Q 258 261 248 256 L 232 254 Z M 367 254 L 358 256 L 353 259 Q 346 263 345 272 Q 344 280 348 285 L 351 286 L 353 290 L 366 297 L 379 299 L 380 303 L 376 306 L 371 307 L 362 306 L 349 301 L 344 312 L 347 313 L 349 317 L 354 320 L 368 324 L 381 324 L 394 319 L 400 308 Q 401 298 396 294 L 393 291 L 391 289 L 383 283 L 369 279 Q 363 281 365 276 L 368 273 L 374 271 L 383 272 L 393 276 L 397 266 L 395 264 L 392 261 Q 388 256 382 255 L 367 254 Z M 77 256 L 75 258 L 75 317 Q 76 319 80 318 Q 79 322 82 323 L 125 323 L 126 322 L 126 313 L 125 311 Q 119 313 121 308 L 120 306 L 95 306 L 95 263 L 94 261 Q 88 263 90 258 L 89 256 L 77 256 Z " /><path fill="rgb(0,0,0)" stroke="rgb(0,0,0)" stroke-width="1" opacity="0" d="M 160.5 275 Q 168.4 274.3 172 277 Q 175.6 281.5 174 292.5 L 167.5 301 Q 163.2 304.7 153.5 303 L 149 300.5 L 147 289.5 Q 148.6 280.6 155.5 277 L 160.5 275 Z " /><path fill="rgb(0,0,0)" stroke="rgb(0,0,0)" stroke-width="1" opacity="0" d="M 306.5 275 L 313.5 276 L 317 278.5 L 319 288.5 L 317 295.5 L 311.5 301 Q 307.5 304.5 298.5 303 L 293 299.5 Q 290.7 294.7 292 286.5 Q 293.4 280.4 298.5 278 L 306.5 275 Z " /><path fill="rgb(0,0,0)" stroke="rgb(0,0,0)" stroke-width="1" opacity="0" d="M 67 350 L 127 350 L 127 400 L 73.5 400 L 68 396.5 L 67 393.5 L 67 350 Z M 96 358 L 90 360 L 84 368 Q 83 374 85 378 L 97 389 L 101 390 Q 107 390 110 387 Q 114 384 115 378 L 113 370 L 104 360 L 96 358 Z " /><path fill="rgb(0,0,0)" stroke="rgb(0,0,0)" stroke-width="1" opacity="0" d="M 140 350 L 196 350 L 196 400 L 140 400 L 140 350 Z M 164 358 L 159 360 Q 153 362 152 369 Q 151 375 154 379 L 164 388 L 169 390 Q 174 391 177 388 L 183 381 Q 185 368 178 365 Q 175 366 176 364 Q 173 358 164 358 Z " /><path fill="rgb(0,0,0)" stroke="rgb(0,0,0)" stroke-width="1" opacity="0" d="M 209 350 L 265 350 L 265 400 L 209 400 L 209 350 Z M 233 358 L 229 359 Q 223 362 221 369 Q 220 376 223 379 L 233 388 L 239 390 L 246 388 Q 251 386 252 380 Q 253 371 249 368 L 247 366 L 244 363 Q 241 358 233 358 Z " /><path fill="rgb(0,0,0)" stroke="rgb(0,0,0)" stroke-width="1" opacity="0" d="M 277 350 L 334 350 L 334 400 L 277 400 L 277 350 Z " /><path fill="rgb(0,0,0)" stroke="rgb(0,0,0)" stroke-width="1" opacity="0" d="M 346 350 L 408 350 L 408 383.5 L 407 388.5 L 402.5 396 L 395.5 400 L 346 400 L 346 350 Z " /><path fill="rgb(173,141,252)" stroke="rgb(173,141,252)" stroke-width="1" opacity="0.9921568627450981" d="M 361.5 60 Q 367.7 59.3 369 63.5 L 370 66.5 L 370 113.5 L 366.5 118 Q 361 116.5 359.5 119 L 355 114.5 L 354 110.5 L 354 69.5 L 355 69.5 L 355.5 84 L 363 78.5 L 363 61.5 L 361.5 61 L 361.5 60 Z " /><path fill="rgb(173,141,252)" stroke="rgb(173,141,252)" stroke-width="1" opacity="0.9921568627450981" d="M 329.5 89 L 344.5 89 L 347 91.5 L 346 99.5 L 347 103.5 Q 344.3 105.2 346 111.5 L 349 122.5 L 354.5 128 L 356.5 128 L 366 128.5 L 360 129 Q 361.5 132.8 358.5 132 L 356 133 L 356 135.5 L 349 143.5 L 349 146 L 347 146 Q 348.5 149.8 345.5 149 L 340.5 152 L 303.5 152 L 304 150.5 L 305 144.5 L 311.5 136 L 314.5 136 Q 315.9 131.3 321 132 L 320.5 127 L 319 127.5 L 325 122.5 L 328 115.5 L 328 107.5 L 330.5 105 L 335.5 105 Q 337.2 101.5 343 103 Q 342.3 99.6 345 98.5 L 346 91.5 L 344.5 90 L 329.5 90 L 328 91.5 L 327.5 98 L 327 91.5 L 329.5 89 Z " /><path fill="rgb(173,141,252)" stroke="rgb(173,141,252)" stroke-width="1" opacity="0.9921568627450981" d="M 380.5 89 L 395 89.5 L 391 90 L 387.5 97 L 381 100 Q 382 103.8 379.5 105 L 379 90.5 L 380.5 89 Z " /><path fill="rgb(173,141,252)" stroke="rgb(173,141,252)" stroke-width="1" opacity="0.9921568627450981" d="M 112.5 115 L 110.5 118 L 112.5 115 Z " /><path fill="rgb(173,141,252)" stroke="rgb(173,141,252)" stroke-width="1" opacity="0.9921568627450981" d="M 317.5 115 L 315.5 118 L 317.5 115 Z " /><path fill="rgb(173,141,252)" stroke="rgb(173,141,252)" stroke-width="1" opacity="0.9921568627450981" d="M 305.5 128 L 318 128.5 L 305.5 129 L 305.5 128 Z " /><path fill="rgb(173,141,252)" stroke="rgb(173,141,252)" stroke-width="1" opacity="0.9921568627450981" d="M 272.5 165 L 334 165.5 L 325 171.5 Q 326.3 176.8 323.5 178 L 280.5 178 L 280 177.5 L 280 166 L 272.5 166 L 272.5 165 Z " /><path fill="rgb(173,141,252)" stroke="rgb(173,141,252)" stroke-width="1" opacity="0.9921568627450981" d="M 62.5 178 L 61.5 180 L 62.5 178 Z " /><path fill="rgb(173,141,252)" stroke="rgb(173,141,252)" stroke-width="1" opacity="0.9921568627450981" d="M 126.5 178 L 127.5 180 L 126.5 178 Z " /><path fill="rgb(173,141,252)" stroke="rgb(173,141,252)" stroke-width="1" opacity="0.9921568627450981" d="M 135.5 178 L 134.5 180 L 135.5 178 Z " /><path fill="rgb(173,141,252)" stroke="rgb(173,141,252)" stroke-width="1" opacity="0.9921568627450981" d="M 195.5 178 L 196.5 180 L 195.5 178 Z " /><path fill="rgb(173,141,252)" stroke="rgb(173,141,252)" stroke-width="1" opacity="0.9921568627450981" d="M 204.5 178 L 203.5 180 L 204.5 178 Z " /><path fill="rgb(173,141,252)" stroke="rgb(173,141,252)" stroke-width="1" opacity="0.9921568627450981" d="M 264.5 178 L 265.5 180 L 264.5 178 Z " /><path fill="rgb(173,141,252)" stroke="rgb(173,141,252)" stroke-width="1" opacity="0.9921568627450981" d="M 272.5 178 L 271.5 180 L 272.5 178 Z " /><path fill="rgb(173,141,252)" stroke="rgb(173,141,252)" stroke-width="1" opacity="0.9921568627450981" d="M 265.5 184 L 266.5 193 L 271 189.5 L 271 229.5 L 272.5 231 L 283.5 230 L 283.5 231 L 281.5 231 L 275.5 237 L 238.5 237 L 239 235.5 Q 239.5 231 238.5 231 L 210.5 231 L 210.5 230 L 262.5 230 L 265 229 L 265.5 184 Z " /><path fill="rgb(173,141,252)" stroke="rgb(173,141,252)" stroke-width="1" opacity="0.9921568627450981" d="M 61.5 229 L 62.5 231 L 61.5 229 Z " /><path fill="rgb(173,141,252)" stroke="rgb(173,141,252)" stroke-width="1" opacity="0.9921568627450981" d="M 134.5 229 L 135.5 231 L 134.5 229 Z " /><path fill="rgb(173,141,252)" stroke="rgb(173,141,252)" stroke-width="1" opacity="0.9921568627450981" d="M 203.5 229 L 204.5 231 L 203.5 229 Z " /><path fill="rgb(173,141,252)" stroke="rgb(173,141,252)" stroke-width="1" opacity="0.9921568627450981" d="M 62.5 237 L 61.5 239 L 62.5 237 Z " /><path fill="rgb(173,141,252)" stroke="rgb(173,141,252)" stroke-width="1" opacity="0.9921568627450981" d="M 231.5 254 L 247.5 256 L 257 262.5 L 255.5 262 L 247 267 Q 248.3 270.3 243.5 269 Q 240.3 265.7 233.5 266 Q 223.1 268.1 218 275.5 L 215 283.5 L 215 290.5 L 220 302.5 L 218.5 305 L 216.5 304 L 212.5 309 L 211 309.5 L 212.5 312 Q 201 304 201 284.5 L 205 270.5 L 214.5 260 L 221.5 256 L 231.5 254 Z " /><path fill="rgb(173,141,252)" stroke="rgb(173,141,252)" stroke-width="1" opacity="0.9921568627450981" d="M 189.5 280 L 193 282.5 L 190.5 281 L 189.5 280 Z " /><path fill="rgb(173,141,252)" stroke="rgb(173,141,252)" stroke-width="1" opacity="0.9921568627450981" d="M 174.5 281 L 175 292.5 L 174 292.5 L 174.5 281 Z " /><path fill="rgb(173,141,252)" stroke="rgb(173,141,252)" stroke-width="1" opacity="0.9921568627450981" d="M 192.5 290 L 191.5 292 L 192.5 290 Z " /><path fill="rgb(173,141,252)" stroke="rgb(173,141,252)" stroke-width="1" opacity="0.9921568627450981" d="M 186.5 293 L 185.5 295 L 186.5 293 Z " /><path fill="rgb(173,141,252)" stroke="rgb(173,141,252)" stroke-width="1" opacity="0.9921568627450981" d="M 172.5 296 L 167.5 302 L 172.5 296 Z " /><path fill="rgb(173,141,252)" stroke="rgb(173,141,252)" stroke-width="1" opacity="0.9921568627450981" d="M 182 302 Q 184.7 300.9 184 303.5 L 186 308.5 L 181.5 314 L 177.5 314 L 174 312 L 175.5 309 Q 181 310 182 306.5 L 182 302 Z " /><path fill="rgb(173,141,252)" stroke="rgb(173,141,252)" stroke-width="1" opacity="0.9921568627450981" d="M 161.5 303 L 164 303.5 L 161.5 304 L 161.5 303 Z " /><path fill="rgb(173,141,252)" stroke="rgb(173,141,252)" stroke-width="1" opacity="0.9921568627450981" d="M 89.5 305 L 90.5 307 L 89.5 305 Z " /><path fill="rgb(173,141,252)" stroke="rgb(173,141,252)" stroke-width="1" opacity="0.9921568627450981" d="M 168.5 311 L 173 311.5 L 166 314 L 164 321 L 159 321 L 159 319.5 L 168.5 311 Z " /><path fill="rgb(173,141,252)" stroke="rgb(173,141,252)" stroke-width="1" opacity="0.9921568627450981" d="M 152.5 317 L 154.5 321 L 156 321.5 L 154.5 322 Q 150.8 320.8 152.5 317 Z " /><path fill="rgb(173,141,252)" stroke="rgb(173,141,252)" stroke-width="1" opacity="0.9921568627450981" d="M 61.5 336 L 62.5 338 L 61.5 336 Z " /><path fill="rgb(173,141,252)" stroke="rgb(173,141,252)" stroke-width="1" opacity="0.9921568627450981" d="M 126.5 337 L 196 337.5 Q 189.7 336.7 188 340.5 L 185.5 344 L 146.5 344 L 147.5 342 Q 153 342.5 155 339.5 L 154.5 338 L 126.5 338 L 126.5 337 Z " /><path fill="rgb(173,141,252)" stroke="rgb(173,141,252)" stroke-width="1" opacity="0.9921568627450981" d="M 62.5 344 L 61.5 346 L 62.5 344 Z " /><path fill="rgb(173,141,252)" stroke="rgb(173,141,252)" stroke-width="1" opacity="0.9921568627450981" d="M 126.5 344 L 127.5 346 L 126.5 344 Z " /><path fill="rgb(173,141,252)" stroke="rgb(173,141,252)" stroke-width="1" opacity="0.9921568627450981" d="M 135.5 344 L 134.5 346 L 135.5 344 Z " /><path fill="rgb(173,141,252)" stroke="rgb(173,141,252)" stroke-width="1" opacity="0.9921568627450981" d="M 127.5 350 L 128 362 Q 132.2 362.7 133.5 359 L 134 399.5 L 136 402.5 L 122.5 414 L 83.5 414 L 83.5 413 L 88 412 L 93.5 405 Q 98.6 405.6 100 402.5 L 99.5 401 L 81.5 401 L 81.5 400 L 127 400 L 127.5 350 Z " /><path fill="rgb(173,141,252)" stroke="rgb(173,141,252)" stroke-width="1" opacity="0.9921568627450981" d="M 163.5 358 Q 169.7 357.3 172 360.5 L 170.5 360 L 165 363.5 Q 165.2 368.7 162 370.5 L 162 375 L 157 375 L 157 377 Q 154.3 375.9 155 378.5 L 154 378.5 Q 151.3 375.2 152 368.5 Q 153.4 362.4 158.5 360 L 163.5 358 Z " /><path fill="rgb(173,141,252)" stroke="rgb(173,141,252)" stroke-width="1" opacity="0.9921568627450981" d="M 88.5 380 L 89.5 382 L 88.5 380 Z " /><path fill="rgb(0,0,0)" stroke="rgb(0,0,0)" stroke-width="1" opacity="0.996078431372549" d="M 370.5 66 L 375 71.5 L 375 118.5 L 371.5 123 Q 362.8 124.8 361 119.5 Q 367.3 120.3 369 116.5 L 371 113.5 L 371 67.5 L 370.5 66 Z " /><path fill="rgb(0,0,0)" stroke="rgb(0,0,0)" stroke-width="1" opacity="0.996078431372549" d="M 114 67 L 118 69.5 L 118 120.5 L 115.5 123 Q 107 125 105 120.5 Q 104.1 117.1 109.5 119 L 113 116.5 L 114 114.5 L 114 67 Z " /><path fill="rgb(0,0,0)" stroke="rgb(0,0,0)" stroke-width="1" opacity="0.996078431372549" d="M 165.5 67 L 169 70.5 L 169 119.5 Q 167.3 124.8 158.5 123 L 155.5 119 Q 162.8 120.3 164 115.5 L 165 113.5 L 165.5 67 Z " /><path fill="rgb(0,0,0)" stroke="rgb(0,0,0)" stroke-width="1" opacity="0.996078431372549" d="M 217.5 67 L 221 70.5 L 221 119.5 Q 219.3 124.8 210.5 123 L 207.5 119 Q 214.8 120.3 216 115.5 L 217 113.5 L 217.5 67 Z " /><path fill="rgb(0,0,0)" stroke="rgb(0,0,0)" stroke-width="1" opacity="0.996078431372549" d="M 268.5 67 L 272 70.5 L 272 119.5 Q 270.3 124.8 261.5 123 L 258.5 119 Q 265.8 120.3 267 115.5 L 268 113.5 L 268.5 67 Z " /><path fill="rgb(0,0,0)" stroke="rgb(0,0,0)" stroke-width="1" opacity="0.996078431372549" d="M 320.5 67 L 324 71.5 L 324 118.5 L 320.5 123 Q 312 125 310 120.5 Q 309.1 117.1 314.5 119 L 318 116.5 L 320 112.5 L 320.5 67 Z " /><path fill="rgb(0,0,0)" stroke="rgb(0,0,0)" stroke-width="1" opacity="0.996078431372549" d="M 91 95 L 95 95.5 L 95 108.5 L 93 115.5 Q 95.3 116.7 94 121.5 L 96 124.5 L 92 121.5 L 90 117.5 L 89 109.5 L 91 102.5 L 91 95 Z " /><path fill="rgb(0,0,0)" stroke="rgb(0,0,0)" stroke-width="1" opacity="0.996078431372549" d="M 142 95 L 146 95.5 L 146 109.5 L 145 110.5 L 145 120.5 L 146 123.5 L 143 121.5 Q 139.3 115.7 141 104.5 L 142 103.5 L 142 95 Z " /><path fill="rgb(0,0,0)" stroke="rgb(0,0,0)" stroke-width="1" opacity="0.996078431372549" d="M 193 95 L 197 95.5 L 197 110.5 L 196 111.5 L 196 119.5 L 198 123.5 L 194 120.5 Q 190.6 115.4 192 105.5 L 193 104.5 L 193 95 Z " /><path fill="rgb(0,0,0)" stroke="rgb(0,0,0)" stroke-width="1" opacity="0.996078431372549" d="M 245 95 Q 249.1 93.3 248 97.5 L 249 98.5 L 249 106.5 Q 245.9 110.9 247 119.5 L 250 124.5 L 246 121.5 Q 241.3 116.7 243 105.5 Q 245.9 101.6 245 95 Z " /><path fill="rgb(0,0,0)" stroke="rgb(0,0,0)" stroke-width="1" opacity="0.996078431372549" d="M 296 95 L 300 95.5 L 300 117.5 L 304 126.5 L 301 124.5 Q 294.4 118.1 295 104.5 L 296 103.5 L 296 95 Z " /><path fill="rgb(0,0,0)" stroke="rgb(0,0,0)" stroke-width="1" opacity="0.996078431372549" d="M 347 95 L 351 95 L 351 104.5 L 352 108.5 Q 349.2 110.2 351 116.5 L 353 124.5 L 348 120.5 L 347 116.5 L 347 95 Z " /><path fill="rgb(0,0,0)" stroke="rgb(0,0,0)" stroke-width="1" opacity="0.996078431372549" d="M 419.5 106 L 423 109.5 L 426 120.5 L 426 154.5 L 423.5 157 L 54.5 157 L 53 153 L 418.5 153 L 422 149.5 L 422 116.5 L 419.5 106 Z " /><path fill="rgb(0,0,0)" stroke="rgb(0,0,0)" stroke-width="1" opacity="0.996078431372549" d="M 422 171 L 426 172.5 L 426 393.5 Q 423.6 408.6 412.5 415 L 409.5 417 L 400.5 419 L 78.5 419 L 69.5 417 L 64 412.5 L 65.5 413 L 74.5 415 L 394.5 415 L 405.5 412 L 417 401.5 L 422 387.5 L 422 171 Z " /><path fill="rgb(0,0,0)" stroke="rgb(0,0,0)" stroke-width="1" opacity="0.996078431372549" d="M 62 179 L 126.5 179 L 127 183 L 68.5 183 L 66 185.5 L 66 229.5 L 62 230 L 62 179 Z " /><path fill="rgb(0,0,0)" stroke="rgb(0,0,0)" stroke-width="1" opacity="0.996078431372549" d="M 135 179 L 195.5 179 L 196 183 L 141.5 183 L 139 185.5 L 139 229.5 L 135 230 L 135 179 Z " /><path fill="rgb(0,0,0)" stroke="rgb(0,0,0)" stroke-width="1" opacity="0.996078431372549" d="M 204 179 L 264.5 179 L 265 183 L 210.5 183 L 208 185.5 L 207 201.5 L 208 202.5 L 208 230 L 204 229.5 L 204 198.5 L 203 197.5 L 203 184.5 L 204 179 Z " /><path fill="rgb(0,0,0)" stroke="rgb(0,0,0)" stroke-width="1" opacity="0.996078431372549" d="M 272 179 L 333.5 179 L 334 183 L 278.5 183 L 276 185.5 L 276 229.5 L 272 230 L 272 179 Z " /><path fill="rgb(0,0,0)" stroke="rgb(0,0,0)" stroke-width="1" opacity="0.996078431372549" d="M 341 179 L 406.5 179 L 407 183 L 347.5 183 L 345 185.5 L 345 229.5 L 341 230 L 341 179 Z " /><path fill="rgb(0,0,0)" stroke="rgb(0,0,0)" stroke-width="1" opacity="0.996078431372549" d="M 384.5 201 L 388 204.5 L 389 212.5 L 388 216.5 L 385.5 219 Q 382.1 224.1 371.5 222 L 368.5 218 L 375.5 218 L 383 212.5 L 385 204.5 L 384.5 201 Z " /><path fill="rgb(0,0,0)" stroke="rgb(0,0,0)" stroke-width="1" opacity="0.996078431372549" d="M 62 238 L 406.5 238 L 408 239.5 L 407.5 242 L 68.5 242 L 66 244.5 L 66 337 L 62 336.5 L 62 238 Z " /><path fill="rgb(0,0,0)" stroke="rgb(0,0,0)" stroke-width="1" opacity="0.996078431372549" d="M 165.5 256 L 169 258.5 Q 169.8 260.8 167.5 260 L 165.5 256 Z " /><path fill="rgb(0,0,0)" stroke="rgb(0,0,0)" stroke-width="1" opacity="0.996078431372549" d="M 310 257 L 313 258.5 L 312.5 260 L 310 259 L 310 257 Z " /><path fill="rgb(0,0,0)" stroke="rgb(0,0,0)" stroke-width="1" opacity="0.996078431372549" d="M 90 262 L 94 262.5 L 94 306 L 90 305.5 L 90 262 Z " /><path fill="rgb(0,0,0)" stroke="rgb(0,0,0)" stroke-width="1" opacity="0.996078431372549" d="M 391 263 L 396 265.5 L 396 268.5 L 392.5 275 L 381.5 271 L 374.5 270 L 365 274.5 L 363.5 278 L 360 275.5 Q 358.8 269.3 362.5 268 L 368.5 266 L 373.5 266 L 387.5 271 L 391 263 Z " /><path fill="rgb(0,0,0)" stroke="rgb(0,0,0)" stroke-width="1" opacity="0.996078431372549" d="M 187.5 266 Q 190.8 267.8 191 272.5 Q 187.6 274.6 187.5 280 Q 182.9 278.1 184 270.5 L 187.5 266 Z " /><path fill="rgb(0,0,0)" stroke="rgb(0,0,0)" stroke-width="1" opacity="0.996078431372549" d="M 259.5 266 Q 263.5 266.5 263 271.5 L 256.5 277 L 253.5 277 Q 248.7 271.3 238.5 271 Q 228.1 273.1 223 280.5 L 220 288.5 L 220 295.5 L 223 301.5 L 219 298.5 Q 214.7 293.4 216 282.5 Q 217.6 273.6 224.5 270 L 232.5 267 L 237.5 267 Q 244.9 268.1 248.5 273 L 251.5 273 L 259.5 266 Z " /><path fill="rgb(0,0,0)" stroke="rgb(0,0,0)" stroke-width="1" opacity="0.996078431372549" d="M 331.5 266 Q 335.8 266.8 335 272.5 L 332 278.5 L 332.5 280 L 329 277.5 L 328 270.5 L 331.5 266 Z " /><path fill="rgb(0,0,0)" stroke="rgb(0,0,0)" stroke-width="1" opacity="0.996078431372549" d="M 155.5 270 Q 166.3 269.3 170 275.5 L 168.5 275 L 161.5 274 Q 153.2 276.1 149 282.5 L 146 292.5 L 148 298.5 L 144 295.5 L 142 284.5 Q 143.6 275.6 150.5 272 L 155.5 270 Z " /><path fill="rgb(0,0,0)" stroke="rgb(0,0,0)" stroke-width="1" opacity="0.996078431372549" d="M 301.5 270 L 308.5 271 L 314 275.5 L 312.5 275 L 307.5 274 Q 297.8 275.8 293 282.5 Q 289.9 286.9 291 295.5 L 293 299.5 L 289 296.5 Q 285.6 291.4 287 281.5 Q 288.4 275.4 293.5 273 L 301.5 270 Z " /><path fill="rgb(0,0,0)" stroke="rgb(0,0,0)" stroke-width="1" opacity="0.996078431372549" d="M 194 286 L 198 287.5 L 198 295.5 L 196.5 297 Q 191.8 297.3 190 300.5 L 188 306.5 L 191 313.5 L 186.5 319 L 182.5 319 L 178.5 316 L 171 319 L 169 326 L 158.5 326 L 158 323.5 L 157.5 322 Q 163.5 323.5 165 320.5 Q 164.4 315.4 167.5 314 L 174.5 312 Q 175.5 316 181.5 315 L 187 308.5 L 187 306.5 L 184 300.5 L 186 294 Q 191.7 294.4 194 290.5 L 194 286 Z " /><path fill="rgb(0,0,0)" stroke="rgb(0,0,0)" stroke-width="1" opacity="0.996078431372549" d="M 338 286 L 342 287.5 L 342 295.5 L 340.5 297 Q 334.8 296.3 334 300.5 L 332 305.5 L 336 313.5 L 330.5 319 L 326.5 319 L 322.5 316 L 315 319 L 313 326 L 303.5 326 L 302 324.5 L 302 322 L 307.5 322 L 311.5 314 L 318.5 312 Q 319.9 315.6 325.5 315 L 332 308.5 L 332 306.5 Q 328.3 304.7 328 299.5 L 331 293 Q 336.5 294.3 338 290.5 L 338 286 Z " /><path fill="rgb(0,0,0)" stroke="rgb(0,0,0)" stroke-width="1" opacity="0.996078431372549" d="M 353.5 288 L 360.5 292 L 373.5 294 L 380 298.5 L 378.5 299 L 364.5 296 L 355.5 291 L 353.5 288 Z " /><path fill="rgb(0,0,0)" stroke="rgb(0,0,0)" stroke-width="1" opacity="0.996078431372549" d="M 259 292 L 263 292.5 L 263 315.5 L 257.5 320 L 246.5 323 L 232.5 323 L 222.5 320 L 217 315.5 L 218.5 316 L 228.5 319 L 240.5 319 L 251.5 316 L 259 310.5 L 259 292 Z " /><path fill="rgb(0,0,0)" stroke="rgb(0,0,0)" stroke-width="1" opacity="0.996078431372549" d="M 393.5 292 Q 400.3 296.2 399 308.5 L 392.5 319 Q 383.5 325 366.5 323 L 355.5 320 L 350 316.5 L 350.5 315 L 362.5 319 L 375.5 319 L 385.5 316 L 390 312.5 L 395 302.5 L 395 296.5 L 393.5 292 Z " /><path fill="rgb(0,0,0)" stroke="rgb(0,0,0)" stroke-width="1" opacity="0.996078431372549" d="M 129.5 293 L 132 296.5 L 130.5 297 Q 128 296 129.5 293 Z " /><path fill="rgb(0,0,0)" stroke="rgb(0,0,0)" stroke-width="1" opacity="0.996078431372549" d="M 273.5 293 L 276 296.5 L 274.5 297 Q 272 296 273.5 293 Z " /><path fill="rgb(0,0,0)" stroke="rgb(0,0,0)" stroke-width="1" opacity="0.996078431372549" d="M 121 312 L 125 312 L 125 322 L 81.5 322 L 81 318 L 119.5 318 L 121 316.5 L 121 312 Z " /><path fill="rgb(0,0,0)" stroke="rgb(0,0,0)" stroke-width="1" opacity="0.996078431372549" d="M 142.5 312 Q 149.1 311.4 151 315.5 L 150.5 317 L 148.5 316 L 144.5 319 L 141.5 319 L 138 315.5 L 139.5 314 L 142.5 312 Z " /><path fill="rgb(0,0,0)" stroke="rgb(0,0,0)" stroke-width="1" opacity="0.996078431372549" d="M 287.5 312 L 293.5 314 L 296 316.5 L 295.5 318 L 291.5 317 Q 290.1 319.6 285.5 319 L 282.5 315 L 287.5 312 Z " /><path fill="rgb(0,0,0)" stroke="rgb(0,0,0)" stroke-width="1" opacity="0.996078431372549" d="M 62 345 L 126.5 345 L 127 349 L 68.5 349 L 66 351.5 L 66 392.5 L 68 396.5 L 65 394.5 L 62 388.5 L 62 345 Z " /><path fill="rgb(0,0,0)" stroke="rgb(0,0,0)" stroke-width="1" opacity="0.996078431372549" d="M 135 345 L 195.5 345 L 196 349 L 141.5 349 L 139 351.5 L 139 399.5 L 135 400 L 135 345 Z " /><path fill="rgb(0,0,0)" stroke="rgb(0,0,0)" stroke-width="1" opacity="0.996078431372549" d="M 204 345 L 264.5 345 L 265 349 L 210.5 349 L 208 351.5 L 208 399.5 L 204 400 L 204 345 Z " /><path fill="rgb(0,0,0)" stroke="rgb(0,0,0)" stroke-width="1" opacity="0.996078431372549" d="M 272 345 L 333.5 345 L 334 349 L 278.5 349 L 276 351.5 L 276 399.5 L 272 400 L 272 345 Z " /><path fill="rgb(0,0,0)" stroke="rgb(0,0,0)" stroke-width="1" opacity="0.996078431372549" d="M 341 345 L 407.5 345 L 408 349 L 347.5 349 L 345 351.5 L 345 399.5 L 341 400 L 341 345 Z " /><path fill="rgb(0,0,0)" stroke="rgb(0,0,0)" stroke-width="1" opacity="0.996078431372549" d="M 177.5 366 Q 184.3 369.3 182 381.5 L 175.5 388 L 167.5 389 L 161 384.5 L 162.5 384 L 167.5 385 L 177 377.5 Q 179.3 374.3 178 367.5 L 177.5 366 Z " /><path fill="rgb(0,0,0)" stroke="rgb(0,0,0)" stroke-width="1" opacity="0.996078431372549" d="M 246.5 366 Q 252.6 369.4 251 380.5 L 244.5 388 L 237.5 389 L 233.5 388 L 230 384.5 L 232.5 384 L 235.5 385 Q 242.7 383.2 246 377.5 L 247 368.5 L 246.5 366 Z " /><path fill="rgb(0,0,0)" stroke="rgb(0,0,0)" stroke-width="1" opacity="0.996078431372549" d="M 109.5 367 L 113 370.5 L 114 378.5 L 113 382.5 L 108.5 387 Q 105.8 389.8 99.5 389 L 93 384.5 L 94.5 384 L 98.5 385 L 108 378.5 L 110 370.5 L 109.5 367 Z " /><path fill="rgb(0,0,0)" stroke="rgb(0,0,0)" stroke-width="1" opacity="0.996078431372549" d="M 61.5 410 L 62.5 412 L 61.5 410 Z " /><path fill="rgb(0,0,0)" stroke="rgb(0,0,0)" stroke-width="1" opacity="0.9490196078431372" d="M 116.5 67 L 117.5 69 L 116.5 67 Z " /><path fill="rgb(0,0,0)" stroke="rgb(0,0,0)" stroke-width="1" opacity="0.9490196078431372" d="M 94.5 94 L 95.5 96 L 94.5 94 Z " /><path fill="rgb(0,0,0)" stroke="rgb(0,0,0)" stroke-width="1" opacity="0.9490196078431372" d="M 145.5 94 L 146.5 96 L 145.5 94 Z " /><path fill="rgb(0,0,0)" stroke="rgb(0,0,0)" stroke-width="1" opacity="0.9490196078431372" d="M 196.5 94 L 197.5 96 L 196.5 94 Z " /><path fill="rgb(0,0,0)" stroke="rgb(0,0,0)" stroke-width="1" opacity="0.9490196078431372" d="M 247.5 94 L 248.5 96 L 247.5 94 Z " /><path fill="rgb(0,0,0)" stroke="rgb(0,0,0)" stroke-width="1" opacity="0.9490196078431372" d="M 299.5 94 L 300.5 96 L 299.5 94 Z " /><path fill="rgb(0,0,0)" stroke="rgb(0,0,0)" stroke-width="1" opacity="0.9490196078431372" d="M 350.5 94 L 351.5 96 L 350.5 94 Z " /><path fill="rgb(0,0,0)" stroke="rgb(0,0,0)" stroke-width="1" opacity="0.9490196078431372" d="M 351.5 109 L 352 116.5 L 351 116.5 L 351.5 109 Z " /><path fill="rgb(0,0,0)" stroke="rgb(0,0,0)" stroke-width="1" opacity="0.9490196078431372" d="M 117.5 121 L 116.5 123 L 117.5 121 Z " /><path fill="rgb(0,0,0)" stroke="rgb(0,0,0)" stroke-width="1" opacity="0.9490196078431372" d="M 322.5 121 L 321.5 123 L 322.5 121 Z " /><path fill="rgb(0,0,0)" stroke="rgb(0,0,0)" stroke-width="1" opacity="0.9490196078431372" d="M 52.5 155 L 53.5 157 L 52.5 155 Z " /><path fill="rgb(0,0,0)" stroke="rgb(0,0,0)" stroke-width="1" opacity="0.9490196078431372" d="M 387.5 217 L 386.5 219 L 387.5 217 Z " /><path fill="rgb(0,0,0)" stroke="rgb(0,0,0)" stroke-width="1" opacity="0.9490196078431372" d="M 93.5 261 L 94.5 263 L 93.5 261 Z " /><path fill="rgb(0,0,0)" stroke="rgb(0,0,0)" stroke-width="1" opacity="0.9490196078431372" d="M 395.5 264 L 396.5 266 L 395.5 264 Z " /><path fill="rgb(0,0,0)" stroke="rgb(0,0,0)" stroke-width="1" opacity="0.9490196078431372" d="M 393.5 274 L 392.5 276 L 391 275.5 L 393.5 274 Z " /><path fill="rgb(0,0,0)" stroke="rgb(0,0,0)" stroke-width="1" opacity="0.9490196078431372" d="M 196.5 285 L 197.5 287 L 196.5 285 Z " /><path fill="rgb(0,0,0)" stroke="rgb(0,0,0)" stroke-width="1" opacity="0.9490196078431372" d="M 353.5 289 L 354.5 291 L 353.5 289 Z " /><path fill="rgb(0,0,0)" stroke="rgb(0,0,0)" stroke-width="1" opacity="0.9490196078431372" d="M 262.5 291 L 263.5 293 L 262.5 291 Z " /><path fill="rgb(0,0,0)" stroke="rgb(0,0,0)" stroke-width="1" opacity="0.9490196078431372" d="M 273.5 296 L 274.5 298 L 273.5 296 Z " /><path fill="rgb(0,0,0)" stroke="rgb(0,0,0)" stroke-width="1" opacity="0.9490196078431372" d="M 124.5 311 L 125.5 313 L 124.5 311 Z " /><path fill="rgb(0,0,0)" stroke="rgb(0,0,0)" stroke-width="1" opacity="0.9490196078431372" d="M 349.5 316 L 350.5 318 L 349.5 316 Z " /><path fill="rgb(0,0,0)" stroke="rgb(0,0,0)" stroke-width="1" opacity="0.9490196078431372" d="M 394.5 317 L 393.5 319 L 394.5 317 Z " /><path fill="rgb(0,0,0)" stroke="rgb(0,0,0)" stroke-width="1" opacity="0.9490196078431372" d="M 187.5 318 L 186.5 320 L 187.5 318 Z " /><path fill="rgb(0,0,0)" stroke="rgb(0,0,0)" stroke-width="1" opacity="0.9490196078431372" d="M 80.5 321 L 81.5 323 L 80.5 321 Z " /><path fill="rgb(0,0,0)" stroke="rgb(0,0,0)" stroke-width="1" opacity="0.9490196078431372" d="M 125.5 321 L 124.5 323 L 125.5 321 Z " /><path fill="rgb(0,0,0)" stroke="rgb(0,0,0)" stroke-width="1" opacity="0.9490196078431372" d="M 157.5 325 L 158.5 327 L 157.5 325 Z " /><path fill="rgb(0,0,0)" stroke="rgb(0,0,0)" stroke-width="1" opacity="0.9490196078431372" d="M 169.5 325 L 168.5 327 L 169.5 325 Z " /><path fill="rgb(0,0,0)" stroke="rgb(0,0,0)" stroke-width="1" opacity="0.9490196078431372" d="M 313.5 325 L 312.5 327 L 313.5 325 Z " /><path fill="rgb(0,0,0)" stroke="rgb(0,0,0)" stroke-width="1" opacity="0.9490196078431372" d="M 247.5 366 L 248.5 368 L 247.5 366 Z " /><path fill="rgb(0,0,0)" stroke="rgb(0,0,0)" stroke-width="1" opacity="0.9490196078431372" d="M 60.5 410 L 61.5 412 L 60.5 410 Z " /><path fill="rgb(0,0,0)" stroke="rgb(0,0,0)" stroke-width="1" opacity="0.9607843137254902" d="M 268.5 66 L 271.5 70 L 268.5 66 Z " /><path fill="rgb(0,0,0)" stroke="rgb(0,0,0)" stroke-width="1" opacity="0.9607843137254902" d="M 166.5 67 L 167.5 69 L 166.5 67 Z " /><path fill="rgb(0,0,0)" stroke="rgb(0,0,0)" stroke-width="1" opacity="0.9607843137254902" d="M 218.5 67 L 219.5 69 L 218.5 67 Z " /><path fill="rgb(0,0,0)" stroke="rgb(0,0,0)" stroke-width="1" opacity="0.9607843137254902" d="M 118.5 71 L 119 118.5 L 118 118.5 L 118.5 71 Z " /><path fill="rgb(0,0,0)" stroke="rgb(0,0,0)" stroke-width="1" opacity="0.9607843137254902" d="M 272.5 71 L 273 117.5 L 272 117.5 L 272.5 71 Z " /><path fill="rgb(0,0,0)" stroke="rgb(0,0,0)" stroke-width="1" opacity="0.9607843137254902" d="M 169.5 72 L 170 117.5 L 169 117.5 L 169.5 72 Z " /><path fill="rgb(0,0,0)" stroke="rgb(0,0,0)" stroke-width="1" opacity="0.9607843137254902" d="M 221.5 72 L 222 117.5 L 221 117.5 L 221.5 72 Z " /><path fill="rgb(0,0,0)" stroke="rgb(0,0,0)" stroke-width="1" opacity="0.9607843137254902" d="M 324.5 73 L 325 116.5 L 324 116.5 L 324.5 73 Z " /><path fill="rgb(0,0,0)" stroke="rgb(0,0,0)" stroke-width="1" opacity="0.9607843137254902" d="M 375.5 73 L 376 117.5 L 375 117.5 L 375.5 73 Z " /><path fill="rgb(0,0,0)" stroke="rgb(0,0,0)" stroke-width="1" opacity="0.9607843137254902" d="M 91.5 94 L 94 94.5 L 91.5 95 L 91.5 94 Z " /><path fill="rgb(0,0,0)" stroke="rgb(0,0,0)" stroke-width="1" opacity="0.9607843137254902" d="M 142.5 94 L 145 94.5 L 142.5 95 L 142.5 94 Z " /><path fill="rgb(0,0,0)" stroke="rgb(0,0,0)" stroke-width="1" opacity="0.9607843137254902" d="M 193.5 94 L 196 94.5 L 193.5 95 L 193.5 94 Z " /><path fill="rgb(0,0,0)" stroke="rgb(0,0,0)" stroke-width="1" opacity="0.9607843137254902" d="M 296.5 94 L 299 94.5 L 296.5 95 L 296.5 94 Z " /><path fill="rgb(0,0,0)" stroke="rgb(0,0,0)" stroke-width="1" opacity="0.9607843137254902" d="M 347.5 94 L 350 94.5 L 347.5 95 L 347.5 94 Z " /><path fill="rgb(0,0,0)" stroke="rgb(0,0,0)" stroke-width="1" opacity="0.9607843137254902" d="M 95.5 96 L 96 106.5 L 95 106.5 L 95.5 96 Z " /><path fill="rgb(0,0,0)" stroke="rgb(0,0,0)" stroke-width="1" opacity="0.9607843137254902" d="M 146.5 96 L 147 107.5 L 146 107.5 L 146.5 96 Z " /><path fill="rgb(0,0,0)" stroke="rgb(0,0,0)" stroke-width="1" opacity="0.9607843137254902" d="M 197.5 96 L 198 108.5 L 197 108.5 L 197.5 96 Z " /><path fill="rgb(0,0,0)" stroke="rgb(0,0,0)" stroke-width="1" opacity="0.9607843137254902" d="M 300.5 96 L 301 107.5 L 300 107.5 L 300.5 96 Z " /><path fill="rgb(0,0,0)" stroke="rgb(0,0,0)" stroke-width="1" opacity="0.9607843137254902" d="M 351.5 96 L 352 104.5 L 351 104.5 L 351.5 96 Z " /><path fill="rgb(0,0,0)" stroke="rgb(0,0,0)" stroke-width="1" opacity="0.9607843137254902" d="M 249.5 100 L 250 104.5 L 249 104.5 L 249.5 100 Z " /><path fill="rgb(0,0,0)" stroke="rgb(0,0,0)" stroke-width="1" opacity="0.9607843137254902" d="M 416.5 101 L 417.5 103 L 416.5 101 Z " /><path fill="rgb(0,0,0)" stroke="rgb(0,0,0)" stroke-width="1" opacity="0.9607843137254902" d="M 419.5 105 L 421.5 108 L 419.5 105 Z " /><path fill="rgb(0,0,0)" stroke="rgb(0,0,0)" stroke-width="1" opacity="0.9607843137254902" d="M 94.5 109 L 95 112.5 L 94 112.5 L 94.5 109 Z " /><path fill="rgb(0,0,0)" stroke="rgb(0,0,0)" stroke-width="1" opacity="0.9607843137254902" d="M 145.5 110 L 146 120.5 L 145 120.5 L 145.5 110 Z " /><path fill="rgb(0,0,0)" stroke="rgb(0,0,0)" stroke-width="1" opacity="0.9607843137254902" d="M 196.5 111 L 197 119.5 L 196 119.5 L 196.5 111 Z " /><path fill="rgb(0,0,0)" stroke="rgb(0,0,0)" stroke-width="1" opacity="0.9607843137254902" d="M 247.5 111 L 248 119.5 L 247 119.5 L 247.5 111 Z " /><path fill="rgb(0,0,0)" stroke="rgb(0,0,0)" stroke-width="1" opacity="0.9607843137254902" d="M 425.5 117 L 426 119.5 L 425 119.5 L 425.5 117 Z " /><path fill="rgb(0,0,0)" stroke="rgb(0,0,0)" stroke-width="1" opacity="0.9607843137254902" d="M 94.5 118 L 95 121.5 L 94 121.5 L 94.5 118 Z " /><path fill="rgb(0,0,0)" stroke="rgb(0,0,0)" stroke-width="1" opacity="0.9607843137254902" d="M 361.5 120 L 363.5 123 L 361.5 120 Z " /><path fill="rgb(0,0,0)" stroke="rgb(0,0,0)" stroke-width="1" opacity="0.9607843137254902" d="M 156.5 121 L 157.5 123 L 156.5 121 Z " /><path fill="rgb(0,0,0)" stroke="rgb(0,0,0)" stroke-width="1" opacity="0.9607843137254902" d="M 167.5 121 L 166.5 123 L 167.5 121 Z " /><path fill="rgb(0,0,0)" stroke="rgb(0,0,0)" stroke-width="1" opacity="0.9607843137254902" d="M 208.5 121 L 209.5 123 L 208.5 121 Z " /><path fill="rgb(0,0,0)" stroke="rgb(0,0,0)" stroke-width="1" opacity="0.9607843137254902" d="M 219.5 121 L 218.5 123 L 219.5 121 Z " /><path fill="rgb(0,0,0)" stroke="rgb(0,0,0)" stroke-width="1" opacity="0.9607843137254902" d="M 259.5 121 L 260.5 123 L 259.5 121 Z " /><path fill="rgb(0,0,0)" stroke="rgb(0,0,0)" stroke-width="1" opacity="0.9607843137254902" d="M 270.5 121 L 269.5 123 L 270.5 121 Z " /><path fill="rgb(0,0,0)" stroke="rgb(0,0,0)" stroke-width="1" opacity="0.9607843137254902" d="M 426.5 122 L 427 153.5 L 426 153.5 L 426.5 122 Z " /><path fill="rgb(0,0,0)" stroke="rgb(0,0,0)" stroke-width="1" opacity="0.9607843137254902" d="M 108.5 123 L 114 123.5 L 108.5 124 L 108.5 123 Z " /><path fill="rgb(0,0,0)" stroke="rgb(0,0,0)" stroke-width="1" opacity="0.9607843137254902" d="M 159.5 123 L 165 123.5 L 159.5 124 L 159.5 123 Z " /><path fill="rgb(0,0,0)" stroke="rgb(0,0,0)" stroke-width="1" opacity="0.9607843137254902" d="M 211.5 123 L 217 123.5 L 211.5 124 L 211.5 123 Z " /><path fill="rgb(0,0,0)" stroke="rgb(0,0,0)" stroke-width="1" opacity="0.9607843137254902" d="M 262.5 123 L 268 123.5 L 262.5 124 L 262.5 123 Z " /><path fill="rgb(0,0,0)" stroke="rgb(0,0,0)" stroke-width="1" opacity="0.9607843137254902" d="M 313.5 123 L 319 123.5 L 313.5 124 L 313.5 123 Z " /><path fill="rgb(0,0,0)" stroke="rgb(0,0,0)" stroke-width="1" opacity="0.9607843137254902" d="M 365.5 123 L 371 123.5 L 365.5 124 L 365.5 123 Z " /><path fill="rgb(0,0,0)" stroke="rgb(0,0,0)" stroke-width="1" opacity="0.9607843137254902" d="M 425.5 155 L 424.5 157 L 425.5 155 Z " /><path fill="rgb(0,0,0)" stroke="rgb(0,0,0)" stroke-width="1" opacity="0.9607843137254902" d="M 56.5 157 L 423 157.5 L 56.5 158 L 56.5 157 Z " /><path fill="rgb(0,0,0)" stroke="rgb(0,0,0)" stroke-width="1" opacity="0.9607843137254902" d="M 426.5 173 L 427 391.5 L 426 391.5 L 426.5 173 Z " /><path fill="rgb(0,0,0)" stroke="rgb(0,0,0)" stroke-width="1" opacity="0.9607843137254902" d="M 68.5 183 L 127 183.5 L 68.5 184 L 68.5 183 Z " /><path fill="rgb(0,0,0)" stroke="rgb(0,0,0)" stroke-width="1" opacity="0.9607843137254902" d="M 141.5 183 L 196 183.5 L 141.5 184 L 141.5 183 Z " /><path fill="rgb(0,0,0)" stroke="rgb(0,0,0)" stroke-width="1" opacity="0.9607843137254902" d="M 210.5 183 L 265 183.5 L 210.5 184 L 210.5 183 Z " /><path fill="rgb(0,0,0)" stroke="rgb(0,0,0)" stroke-width="1" opacity="0.9607843137254902" d="M 278.5 183 L 334 183.5 L 278.5 184 L 278.5 183 Z " /><path fill="rgb(0,0,0)" stroke="rgb(0,0,0)" stroke-width="1" opacity="0.9607843137254902" d="M 347.5 183 L 407 183.5 L 347.5 184 L 347.5 183 Z " /><path fill="rgb(0,0,0)" stroke="rgb(0,0,0)" stroke-width="1" opacity="0.9607843137254902" d="M 66.5 185 L 67 229.5 L 66 229.5 L 66.5 185 Z " /><path fill="rgb(0,0,0)" stroke="rgb(0,0,0)" stroke-width="1" opacity="0.9607843137254902" d="M 139.5 185 L 140 229.5 L 139 229.5 L 139.5 185 Z " /><path fill="rgb(0,0,0)" stroke="rgb(0,0,0)" stroke-width="1" opacity="0.9607843137254902" d="M 208.5 185 L 209 187.5 L 208 187.5 L 208.5 185 Z " /><path fill="rgb(0,0,0)" stroke="rgb(0,0,0)" stroke-width="1" opacity="0.9607843137254902" d="M 276.5 185 L 277 229.5 L 276 229.5 L 276.5 185 Z " /><path fill="rgb(0,0,0)" stroke="rgb(0,0,0)" stroke-width="1" opacity="0.9607843137254902" d="M 345.5 185 L 346 229.5 L 345 229.5 L 345.5 185 Z " /><path fill="rgb(0,0,0)" stroke="rgb(0,0,0)" stroke-width="1" opacity="0.9607843137254902" d="M 207.5 190 L 208 201.5 L 207 201.5 L 207.5 190 Z " /><path fill="rgb(0,0,0)" stroke="rgb(0,0,0)" stroke-width="1" opacity="0.9607843137254902" d="M 384.5 200 L 387.5 204 L 384.5 200 Z " /><path fill="rgb(0,0,0)" stroke="rgb(0,0,0)" stroke-width="1" opacity="0.9607843137254902" d="M 208.5 204 L 209 229.5 L 208 229.5 L 208.5 204 Z " /><path fill="rgb(0,0,0)" stroke="rgb(0,0,0)" stroke-width="1" opacity="0.9607843137254902" d="M 388.5 205 L 389 207.5 L 388 207.5 L 388.5 205 Z " /><path fill="rgb(0,0,0)" stroke="rgb(0,0,0)" stroke-width="1" opacity="0.9607843137254902" d="M 367.5 218 L 369.5 221 L 367.5 218 Z " /><path fill="rgb(0,0,0)" stroke="rgb(0,0,0)" stroke-width="1" opacity="0.9607843137254902" d="M 384.5 219 L 383.5 221 L 384.5 219 Z " /><path fill="rgb(0,0,0)" stroke="rgb(0,0,0)" stroke-width="1" opacity="0.9607843137254902" d="M 373.5 222 L 380 222.5 L 373.5 223 L 373.5 222 Z " /><path fill="rgb(0,0,0)" stroke="rgb(0,0,0)" stroke-width="1" opacity="0.9607843137254902" d="M 68.5 242 L 408 242.5 L 68.5 243 L 68.5 242 Z " /><path fill="rgb(0,0,0)" stroke="rgb(0,0,0)" stroke-width="1" opacity="0.9607843137254902" d="M 66.5 244 L 67 336.5 L 66 336.5 L 66.5 244 Z " /><path fill="rgb(0,0,0)" stroke="rgb(0,0,0)" stroke-width="1" opacity="0.9607843137254902" d="M 167.5 256 L 168.5 258 L 167.5 256 Z " /><path fill="rgb(0,0,0)" stroke="rgb(0,0,0)" stroke-width="1" opacity="0.9607843137254902" d="M 90.5 261 L 93 261.5 L 90.5 262 L 90.5 261 Z " /><path fill="rgb(0,0,0)" stroke="rgb(0,0,0)" stroke-width="1" opacity="0.9607843137254902" d="M 94.5 263 L 95 305.5 L 94 305.5 L 94.5 263 Z " /><path fill="rgb(0,0,0)" stroke="rgb(0,0,0)" stroke-width="1" opacity="0.9607843137254902" d="M 187.5 265 L 188.5 267 L 187.5 265 Z " /><path fill="rgb(0,0,0)" stroke="rgb(0,0,0)" stroke-width="1" opacity="0.9607843137254902" d="M 331.5 265 L 333.5 268 L 331.5 265 Z " /><path fill="rgb(0,0,0)" stroke="rgb(0,0,0)" stroke-width="1" opacity="0.9607843137254902" d="M 260.5 266 L 262.5 269 L 260.5 266 Z " /><path fill="rgb(0,0,0)" stroke="rgb(0,0,0)" stroke-width="1" opacity="0.9607843137254902" d="M 374.5 270 L 378 270.5 L 374.5 271 L 374.5 270 Z " /><path fill="rgb(0,0,0)" stroke="rgb(0,0,0)" stroke-width="1" opacity="0.9607843137254902" d="M 238.5 271 L 242 271.5 L 238.5 272 L 238.5 271 Z " /><path fill="rgb(0,0,0)" stroke="rgb(0,0,0)" stroke-width="1" opacity="0.9607843137254902" d="M 262.5 272 L 261.5 274 L 262.5 272 Z " /><path fill="rgb(0,0,0)" stroke="rgb(0,0,0)" stroke-width="1" opacity="0.9607843137254902" d="M 334.5 273 L 333.5 275 L 334.5 273 Z " /><path fill="rgb(0,0,0)" stroke="rgb(0,0,0)" stroke-width="1" opacity="0.9607843137254902" d="M 366.5 273 L 365.5 275 L 366.5 273 Z " /><path fill="rgb(0,0,0)" stroke="rgb(0,0,0)" stroke-width="1" opacity="0.9607843137254902" d="M 161.5 274 L 166 274.5 L 161.5 275 L 161.5 274 Z " /><path fill="rgb(0,0,0)" stroke="rgb(0,0,0)" stroke-width="1" opacity="0.9607843137254902" d="M 228.5 275 L 223.5 281 L 228.5 275 Z " /><path fill="rgb(0,0,0)" stroke="rgb(0,0,0)" stroke-width="1" opacity="0.9607843137254902" d="M 251.5 275 L 252.5 277 L 251.5 275 Z " /><path fill="rgb(0,0,0)" stroke="rgb(0,0,0)" stroke-width="1" opacity="0.9607843137254902" d="M 258.5 275 L 257.5 277 L 258.5 275 Z " /><path fill="rgb(0,0,0)" stroke="rgb(0,0,0)" stroke-width="1" opacity="0.9607843137254902" d="M 310.5 275 L 313 275.5 L 310.5 276 L 310.5 275 Z " /><path fill="rgb(0,0,0)" stroke="rgb(0,0,0)" stroke-width="1" opacity="0.9607843137254902" d="M 188.5 276 L 189 279.5 L 188 279.5 L 188.5 276 Z " /><path fill="rgb(0,0,0)" stroke="rgb(0,0,0)" stroke-width="1" opacity="0.9607843137254902" d="M 332.5 276 L 333 278.5 L 332 278.5 L 332.5 276 Z " /><path fill="rgb(0,0,0)" stroke="rgb(0,0,0)" stroke-width="1" opacity="0.9607843137254902" d="M 154.5 277 L 149.5 283 L 154.5 277 Z " /><path fill="rgb(0,0,0)" stroke="rgb(0,0,0)" stroke-width="1" opacity="0.9607843137254902" d="M 297.5 278 L 293.5 283 L 297.5 278 Z " /><path fill="rgb(0,0,0)" stroke="rgb(0,0,0)" stroke-width="1" opacity="0.9607843137254902" d="M 291.5 287 L 292 295.5 L 291 295.5 L 291.5 287 Z " /><path fill="rgb(0,0,0)" stroke="rgb(0,0,0)" stroke-width="1" opacity="0.9607843137254902" d="M 220.5 288 L 221 295.5 L 220 295.5 L 220.5 288 Z " /><path fill="rgb(0,0,0)" stroke="rgb(0,0,0)" stroke-width="1" opacity="0.9607843137254902" d="M 342.5 288 L 343 294.5 L 342 294.5 L 342.5 288 Z " /><path fill="rgb(0,0,0)" stroke="rgb(0,0,0)" stroke-width="1" opacity="0.9607843137254902" d="M 198.5 289 L 199 294.5 L 198 294.5 L 198.5 289 Z " /><path fill="rgb(0,0,0)" stroke="rgb(0,0,0)" stroke-width="1" opacity="0.9607843137254902" d="M 146.5 290 L 147 292.5 L 146 292.5 L 146.5 290 Z " /><path fill="rgb(0,0,0)" stroke="rgb(0,0,0)" stroke-width="1" opacity="0.9607843137254902" d="M 259.5 291 L 262 291.5 L 259.5 292 L 259.5 291 Z " /><path fill="rgb(0,0,0)" stroke="rgb(0,0,0)" stroke-width="1" opacity="0.9607843137254902" d="M 263.5 293 L 264 314.5 L 263 314.5 L 263.5 293 Z " /><path fill="rgb(0,0,0)" stroke="rgb(0,0,0)" stroke-width="1" opacity="0.9607843137254902" d="M 147.5 295 L 148 297.5 L 147 297.5 L 147.5 295 Z " /><path fill="rgb(0,0,0)" stroke="rgb(0,0,0)" stroke-width="1" opacity="0.9607843137254902" d="M 366.5 296 L 369 296.5 L 366.5 297 L 366.5 296 Z " /><path fill="rgb(0,0,0)" stroke="rgb(0,0,0)" stroke-width="1" opacity="0.9607843137254902" d="M 337.5 297 L 340 297.5 L 337.5 298 L 337.5 297 Z " /><path fill="rgb(0,0,0)" stroke="rgb(0,0,0)" stroke-width="1" opacity="0.9607843137254902" d="M 375.5 298 L 378 298.5 L 375.5 299 L 375.5 298 Z " /><path fill="rgb(0,0,0)" stroke="rgb(0,0,0)" stroke-width="1" opacity="0.9607843137254902" d="M 399.5 302 L 400 306.5 L 399 306.5 L 399.5 302 Z " /><path fill="rgb(0,0,0)" stroke="rgb(0,0,0)" stroke-width="1" opacity="0.9607843137254902" d="M 334.5 309 L 335.5 311 L 334.5 309 Z " /><path fill="rgb(0,0,0)" stroke="rgb(0,0,0)" stroke-width="1" opacity="0.9607843137254902" d="M 121.5 311 L 124 311.5 L 121.5 312 L 121.5 311 Z " /><path fill="rgb(0,0,0)" stroke="rgb(0,0,0)" stroke-width="1" opacity="0.9607843137254902" d="M 125.5 313 L 126 320.5 L 125 320.5 L 125.5 313 Z " /><path fill="rgb(0,0,0)" stroke="rgb(0,0,0)" stroke-width="1" opacity="0.9607843137254902" d="M 190.5 314 L 188.5 317 L 190.5 314 Z " /><path fill="rgb(0,0,0)" stroke="rgb(0,0,0)" stroke-width="1" opacity="0.9607843137254902" d="M 215.5 314 L 218.5 318 L 215.5 314 Z " /><path fill="rgb(0,0,0)" stroke="rgb(0,0,0)" stroke-width="1" opacity="0.9607843137254902" d="M 335.5 314 L 331.5 319 L 335.5 314 Z " /><path fill="rgb(0,0,0)" stroke="rgb(0,0,0)" stroke-width="1" opacity="0.9607843137254902" d="M 137.5 315 L 140.5 319 L 137.5 315 Z " /><path fill="rgb(0,0,0)" stroke="rgb(0,0,0)" stroke-width="1" opacity="0.9607843137254902" d="M 281.5 315 L 284.5 319 L 281.5 315 Z " /><path fill="rgb(0,0,0)" stroke="rgb(0,0,0)" stroke-width="1" opacity="0.9607843137254902" d="M 262.5 316 L 261.5 318 L 262.5 316 Z " /><path fill="rgb(0,0,0)" stroke="rgb(0,0,0)" stroke-width="1" opacity="0.9607843137254902" d="M 180.5 317 L 181.5 319 L 180.5 317 Z " /><path fill="rgb(0,0,0)" stroke="rgb(0,0,0)" stroke-width="1" opacity="0.9607843137254902" d="M 80.5 318 L 81 320.5 L 80 320.5 L 80.5 318 Z " /><path fill="rgb(0,0,0)" stroke="rgb(0,0,0)" stroke-width="1" opacity="0.9607843137254902" d="M 183.5 319 L 186 319.5 L 183.5 320 L 183.5 319 Z " /><path fill="rgb(0,0,0)" stroke="rgb(0,0,0)" stroke-width="1" opacity="0.9607843137254902" d="M 82.5 322 L 124 322.5 L 82.5 323 L 82.5 322 Z " /><path fill="rgb(0,0,0)" stroke="rgb(0,0,0)" stroke-width="1" opacity="0.9607843137254902" d="M 363.5 322 L 366 322.5 L 363.5 323 L 363.5 322 Z " /><path fill="rgb(0,0,0)" stroke="rgb(0,0,0)" stroke-width="1" opacity="0.9607843137254902" d="M 234.5 323 L 245 323.5 L 234.5 324 L 234.5 323 Z " /><path fill="rgb(0,0,0)" stroke="rgb(0,0,0)" stroke-width="1" opacity="0.9607843137254902" d="M 368.5 323 L 380 323.5 L 368.5 324 L 368.5 323 Z " /><path fill="rgb(0,0,0)" stroke="rgb(0,0,0)" stroke-width="1" opacity="0.9607843137254902" d="M 159.5 326 L 168 326.5 L 159.5 327 L 159.5 326 Z " /><path fill="rgb(0,0,0)" stroke="rgb(0,0,0)" stroke-width="1" opacity="0.9607843137254902" d="M 304.5 326 L 312 326.5 L 304.5 327 L 304.5 326 Z " /><path fill="rgb(0,0,0)" stroke="rgb(0,0,0)" stroke-width="1" opacity="0.9607843137254902" d="M 68.5 349 L 127 349.5 L 68.5 350 L 68.5 349 Z " /><path fill="rgb(0,0,0)" stroke="rgb(0,0,0)" stroke-width="1" opacity="0.9607843137254902" d="M 141.5 349 L 196 349.5 L 141.5 350 L 141.5 349 Z " /><path fill="rgb(0,0,0)" stroke="rgb(0,0,0)" stroke-width="1" opacity="0.9607843137254902" d="M 210.5 349 L 265 349.5 L 210.5 350 L 210.5 349 Z " /><path fill="rgb(0,0,0)" stroke="rgb(0,0,0)" stroke-width="1" opacity="0.9607843137254902" d="M 278.5 349 L 334 349.5 L 278.5 350 L 278.5 349 Z " /><path fill="rgb(0,0,0)" stroke="rgb(0,0,0)" stroke-width="1" opacity="0.9607843137254902" d="M 347.5 349 L 408 349.5 L 347.5 350 L 347.5 349 Z " /><path fill="rgb(0,0,0)" stroke="rgb(0,0,0)" stroke-width="1" opacity="0.9607843137254902" d="M 66.5 351 L 67 392.5 L 66 392.5 L 66.5 351 Z " /><path fill="rgb(0,0,0)" stroke="rgb(0,0,0)" stroke-width="1" opacity="0.9607843137254902" d="M 139.5 351 L 140 399.5 L 139 399.5 L 139.5 351 Z " /><path fill="rgb(0,0,0)" stroke="rgb(0,0,0)" stroke-width="1" opacity="0.9607843137254902" d="M 208.5 351 L 209 399.5 L 208 399.5 L 208.5 351 Z " /><path fill="rgb(0,0,0)" stroke="rgb(0,0,0)" stroke-width="1" opacity="0.9607843137254902" d="M 276.5 351 L 277 399.5 L 276 399.5 L 276.5 351 Z " /><path fill="rgb(0,0,0)" stroke="rgb(0,0,0)" stroke-width="1" opacity="0.9607843137254902" d="M 345.5 351 L 346 399.5 L 345 399.5 L 345.5 351 Z " /><path fill="rgb(0,0,0)" stroke="rgb(0,0,0)" stroke-width="1" opacity="0.9607843137254902" d="M 109.5 366 L 111.5 369 L 109.5 366 Z " /><path fill="rgb(0,0,0)" stroke="rgb(0,0,0)" stroke-width="1" opacity="0.9607843137254902" d="M 178.5 366 L 179.5 368 L 178.5 366 Z " /><path fill="rgb(0,0,0)" stroke="rgb(0,0,0)" stroke-width="1" opacity="0.9607843137254902" d="M 182.5 373 L 183 379.5 L 182 379.5 L 182.5 373 Z " /><path fill="rgb(0,0,0)" stroke="rgb(0,0,0)" stroke-width="1" opacity="0.9607843137254902" d="M 251.5 374 L 252 378.5 L 251 378.5 L 251.5 374 Z " /><path fill="rgb(0,0,0)" stroke="rgb(0,0,0)" stroke-width="1" opacity="0.9607843137254902" d="M 180.5 383 L 177.5 387 L 180.5 383 Z " /><path fill="rgb(0,0,0)" stroke="rgb(0,0,0)" stroke-width="1" opacity="0.9607843137254902" d="M 249.5 383 L 246.5 387 L 249.5 383 Z " /><path fill="rgb(0,0,0)" stroke="rgb(0,0,0)" stroke-width="1" opacity="0.9607843137254902" d="M 92.5 384 L 95.5 388 L 92.5 384 Z " /><path fill="rgb(0,0,0)" stroke="rgb(0,0,0)" stroke-width="1" opacity="0.9607843137254902" d="M 111.5 384 L 110.5 386 L 111.5 384 Z " /><path fill="rgb(0,0,0)" stroke="rgb(0,0,0)" stroke-width="1" opacity="0.9607843137254902" d="M 160.5 384 L 162.5 387 L 160.5 384 Z " /><path fill="rgb(0,0,0)" stroke="rgb(0,0,0)" stroke-width="1" opacity="0.9607843137254902" d="M 229.5 384 L 231.5 387 L 229.5 384 Z " /><path fill="rgb(0,0,0)" stroke="rgb(0,0,0)" stroke-width="1" opacity="0.9607843137254902" d="M 169.5 389 L 172 389.5 L 169.5 390 L 169.5 389 Z " /><path fill="rgb(0,0,0)" stroke="rgb(0,0,0)" stroke-width="1" opacity="0.9607843137254902" d="M 420.5 407 L 414.5 414 L 420.5 407 Z " /><path fill="rgb(0,0,0)" stroke="rgb(0,0,0)" stroke-width="1" opacity="0.9607843137254902" d="M 63.5 412 L 64.5 414 L 63.5 412 Z " /><path fill="rgb(0,0,0)" stroke="rgb(0,0,0)" stroke-width="1" opacity="0.9607843137254902" d="M 74.5 418 L 78 418.5 L 74.5 419 L 74.5 418 Z " /><path fill="rgb(0,0,0)" stroke="rgb(0,0,0)" stroke-width="1" opacity="0.9607843137254902" d="M 401.5 418 L 405 418.5 L 401.5 419 L 401.5 418 Z " /><path fill="rgb(0,0,0)" stroke="rgb(0,0,0)" stroke-width="1" opacity="0.9607843137254902" d="M 80.5 419 L 399 419.5 L 80.5 420 L 80.5 419 Z " /><path fill="rgb(149,112,216)" stroke="rgb(149,112,216)" stroke-width="1" opacity="0.996078431372549" d="M 346.5 105 L 347 111.5 L 346 111.5 L 346.5 105 Z " /><path fill="rgb(149,112,216)" stroke="rgb(149,112,216)" stroke-width="1" opacity="0.996078431372549" d="M 112.5 116 L 111.5 118 L 112.5 116 Z " /><path fill="rgb(149,112,216)" stroke="rgb(149,112,216)" stroke-width="1" opacity="0.996078431372549" d="M 317.5 116 L 316.5 118 L 317.5 116 Z " /><path fill="rgb(149,112,216)" stroke="rgb(149,112,216)" stroke-width="1" opacity="0.996078431372549" d="M 421.5 116 L 422 149.5 L 418.5 153 L 388.5 153 L 388.5 152 L 418.5 152 L 421 149.5 L 421.5 116 Z " /><path fill="rgb(149,112,216)" stroke="rgb(149,112,216)" stroke-width="1" opacity="0.996078431372549" d="M 299.5 122 L 300.5 124 L 299.5 122 Z " /><path fill="rgb(149,112,216)" stroke="rgb(149,112,216)" stroke-width="1" opacity="0.996078431372549" d="M 421.5 170 L 422 387.5 L 417 401.5 L 408.5 410 L 403.5 413 L 394.5 415 L 160.5 415 L 160.5 414 L 184.5 414 L 188 412 Q 187 408.2 189.5 407 L 197 401.5 L 197 399.5 L 203 393.5 L 203.5 367 L 204 400 L 265 400 L 265 345 L 224 344.5 L 248.5 344 L 251 341.5 L 252.5 338 L 256.5 337 L 408 337 L 408 239.5 L 406.5 238 L 318 237.5 L 348.5 237 L 354 232.5 L 354.5 230 L 407 230 L 407 185.5 L 409 185 L 409 182.5 L 408 182.5 L 407.5 184 L 407 179 L 365 178.5 L 406.5 178 L 410.5 183 Q 413.5 183.7 412 180 L 415 180 L 415 177 L 419.5 177 Q 422.4 175.4 421.5 170 Z M 272 345 L 272 400 L 334 400 L 334 345 L 272 345 Z M 341 345 L 341 400 L 396 400 L 403 396 L 407 389 L 408 384 L 408 345 L 341 345 Z " /><path fill="rgb(149,112,216)" stroke="rgb(149,112,216)" stroke-width="1" opacity="0.996078431372549" d="M 382.5 198 L 384 199.5 L 385 206.5 L 381.5 214 Q 378.1 219.6 367.5 218 L 366.5 216 L 370.5 217 L 374 215.5 Q 371.5 214 375 212.5 L 377.5 209 Q 379.8 209.8 379 207.5 L 382.5 208 L 384 206.5 L 382.5 198 Z " /><path fill="rgb(149,112,216)" stroke="rgb(149,112,216)" stroke-width="1" opacity="0.996078431372549" d="M 340.5 214 L 341 228.5 L 340 228.5 L 340.5 214 Z " /><path fill="rgb(149,112,216)" stroke="rgb(149,112,216)" stroke-width="1" opacity="0.996078431372549" d="M 342.5 230 L 346 230.5 L 342.5 231 L 342.5 230 Z " /><path fill="rgb(149,112,216)" stroke="rgb(149,112,216)" stroke-width="1" opacity="0.996078431372549" d="M 366.5 254 L 381.5 255 Q 388.3 256.3 392 260.5 L 387.5 271 L 377.5 267 L 368.5 266 L 362.5 268 L 360 270.5 Q 358.8 275.8 361.5 277 L 382.5 283 L 391 288.5 Q 396 292.5 395 302.5 L 388.5 314 L 375.5 319 L 362.5 319 L 348.5 315 L 344 311.5 L 348.5 301 L 361.5 306 L 370.5 307 L 375.5 306 L 380 302.5 Q 381 298 378.5 297 L 373.5 294 L 360.5 292 L 348 284.5 Q 344.1 280.4 345 271.5 Q 346.5 263 352.5 259 L 357.5 256 L 366.5 254 Z " /><path fill="rgb(149,112,216)" stroke="rgb(149,112,216)" stroke-width="1" opacity="0.996078431372549" d="M 326.5 262 L 330 263.5 L 331 267.5 Q 327 268.5 328 274.5 L 330.5 279 L 335.5 280 L 338 282.5 Q 340 291 335.5 293 Q 330.1 291.1 331 294.5 Q 327.8 296.3 328 301.5 L 332 306.5 L 332 308.5 L 325.5 315 L 322.5 315 L 316.5 312 L 310 315.5 L 307.5 322 L 298.5 322 L 296 319.5 Q 296.8 314.8 293.5 314 L 287.5 312 L 283.5 315 L 280.5 315 Q 277.8 313.8 280 312.5 Q 278.3 307.3 283.5 309 L 287 306.5 L 286 304 L 290 304 L 290 302.5 L 289 300 L 291 299.5 Q 287.3 297.6 287 292.5 L 288 292.5 Q 288.7 298.9 293.5 301 Q 298.2 304.3 307.5 303 L 317 295.5 L 319 285.5 L 317 278.5 L 310.5 272 L 309 271.5 L 310.5 271 L 315.5 276 L 318 273.5 L 322 264 Q 325.4 264.8 326.5 262 Z " /><path fill="rgb(149,112,216)" stroke="rgb(149,112,216)" stroke-width="1" opacity="0.996078431372549" d="M 298.5 270 L 301 270.5 L 298.5 271 L 298.5 270 Z " /><path fill="rgb(149,112,216)" stroke="rgb(149,112,216)" stroke-width="1" opacity="0.996078431372549" d="M 304.5 270 L 308 270.5 L 304.5 271 L 304.5 270 Z " /><path fill="rgb(149,112,216)" stroke="rgb(149,112,216)" stroke-width="1" opacity="0.996078431372549" d="M 292.5 273 L 288.5 278 L 292.5 273 Z " /><path fill="rgb(149,112,216)" stroke="rgb(149,112,216)" stroke-width="1" opacity="0.996078431372549" d="M 286.5 282 L 287 290.5 L 286 290.5 L 286.5 282 Z " /><path fill="rgb(149,112,216)" stroke="rgb(149,112,216)" stroke-width="1" opacity="0.996078431372549" d="M 258.5 307 L 259 310.5 L 255 313.5 Q 258.6 312.1 258.5 307 Z " /><path fill="rgb(149,112,216)" stroke="rgb(149,112,216)" stroke-width="1" opacity="0.996078431372549" d="M 182.5 313 L 181.5 315 L 182.5 313 Z " /><path fill="rgb(149,112,216)" stroke="rgb(149,112,216)" stroke-width="1" opacity="0.996078431372549" d="M 120.5 316 L 119.5 318 L 120.5 316 Z " /><path fill="rgb(149,112,216)" stroke="rgb(149,112,216)" stroke-width="1" opacity="0.996078431372549" d="M 164.5 320 L 163.5 322 L 164.5 320 Z " /><path fill="rgb(149,112,216)" stroke="rgb(149,112,216)" stroke-width="1" opacity="0.996078431372549" d="M 235.5 359 L 239.5 359 L 244 362.5 Q 248 366 247 374.5 Q 245.6 380.6 240.5 383 L 233.5 385 Q 226.1 383.9 223 378.5 L 221 373.5 L 226.5 370 Q 227.8 372.3 229 369.5 Q 229.4 361.4 235.5 359 Z " /><path fill="rgb(175,143,255)" stroke="rgb(175,143,255)" stroke-width="1" opacity="0.996078431372549" d="M 104.5 60 L 108.5 60 L 113 63.5 L 113 114.5 L 109.5 118 L 102.5 119 L 98 111.5 L 98 67.5 L 102.5 61 L 104.5 60 Z " /><path fill="rgb(175,143,255)" stroke="rgb(175,143,255)" stroke-width="1" opacity="0.996078431372549" d="M 155.5 60 Q 161.9 60.1 164 64.5 L 164 66.5 L 164 113.5 L 160.5 118 Q 155 116.5 153.5 119 L 149 113.5 L 149 65.5 L 155.5 60 Z " /><path fill="rgb(175,143,255)" stroke="rgb(175,143,255)" stroke-width="1" opacity="0.996078431372549" d="M 206.5 60 Q 214.4 59.1 216 64.5 L 216 66.5 L 216 113.5 L 212.5 118 Q 207 116.5 205.5 119 L 201 113.5 L 201 65.5 L 204.5 61 L 206.5 60 Z " /><path fill="rgb(175,143,255)" stroke="rgb(175,143,255)" stroke-width="1" opacity="0.996078431372549" d="M 258.5 60 L 262.5 60 L 267 64.5 L 267 113.5 L 263.5 118 Q 258 116.5 256.5 119 Q 252.3 116.3 251 110.5 L 251 68.5 L 256.5 61 L 258.5 60 Z " /><path fill="rgb(175,143,255)" stroke="rgb(175,143,255)" stroke-width="1" opacity="0.996078431372549" d="M 310.5 60 Q 316.1 59.9 318 63.5 L 319 65.5 L 319 67.5 L 319 112.5 L 314.5 118 Q 309 116.5 307.5 119 L 303 111.5 L 303 67.5 L 308.5 61 L 310.5 60 Z " /><path fill="rgb(175,143,255)" stroke="rgb(175,143,255)" stroke-width="1" opacity="0.996078431372549" d="M 360.5 60 L 363 61 L 363 78.5 L 361.5 80 L 359.5 80 L 355.5 84 L 355 69.5 L 354 68.5 L 356 68 L 355 65.5 L 357 64.5 L 356.5 63 Q 358.8 63.8 358 61.5 L 360 61.5 L 360.5 60 Z " /><path fill="rgb(175,143,255)" stroke="rgb(175,143,255)" stroke-width="1" opacity="0.996078431372549" d="M 70.5 89 L 89.5 89 L 91 90.5 L 88 111.5 L 91 121.5 L 97.5 128 L 99.5 128 L 111.5 128 L 122 119.5 Q 124.6 113.6 123 103.5 L 122 102.5 L 122 90.5 L 123.5 89 L 140.5 89 Q 142.8 89.8 142 93.5 L 140 104.5 L 140 116.5 Q 141.3 122.3 145.5 125 Q 150.7 129.8 162.5 128 L 171 121.5 Q 175.8 116.3 174 104.5 L 172 97.5 Q 174.5 96 173 90.5 L 174.5 89 L 191.5 89 L 193 90.5 L 192 104.5 L 191 105.5 L 191 115.5 Q 193.1 123.4 199.5 127 Q 201 124.5 202.5 128 Q 219.6 130.6 224 120.5 Q 227.4 115.4 226 105.5 L 225 104.5 L 225 90.5 L 226.5 89 L 242.5 89 L 244 90.5 L 244 100.5 Q 240.6 105.6 242 115.5 Q 244.6 122.9 250.5 127 Q 252 124.5 253.5 128 L 265.5 128 L 275 120.5 Q 279 115.5 277 104.5 L 276 103.5 L 276 90.5 L 277.5 89 L 294.5 89 Q 296.8 89.8 296 93.5 L 295 94.5 L 295 104.5 L 294 105.5 L 296 116.5 L 303.5 128 L 305.5 129 L 318 129 L 318.5 127 L 321 127.5 Q 323.1 133.3 318.5 132 L 314.5 136 Q 309.8 135.3 309 138.5 L 304 146.5 Q 305 151 302.5 152 L 52.5 152 L 50.5 153 L 47 150.5 L 47 113.5 Q 49.6 100.2 59.5 94 L 70.5 89 Z " /><path fill="rgb(175,143,255)" stroke="rgb(175,143,255)" stroke-width="1" opacity="0.996078431372549" d="M 328.5 89 L 329.5 90 L 344.5 90 Q 345.7 87.8 347 90.5 L 343 103 Q 337.2 101.5 335.5 105 L 330.5 105 L 328.5 107 L 327 98.5 Q 329.5 97 328 91.5 Q 325.8 90.3 328.5 89 Z " /><path fill="rgb(175,143,255)" stroke="rgb(175,143,255)" stroke-width="1" opacity="0.996078431372549" d="M 324.5 122 L 322.5 125 L 324.5 122 Z " /><path fill="rgb(175,143,255)" stroke="rgb(175,143,255)" stroke-width="1" opacity="0.996078431372549" d="M 49.5 165 L 271.5 165 L 272.5 166 L 280 166 L 280 178 L 272.5 178 L 271 179.5 L 271 188.5 L 266.5 193 L 266 179.5 L 264.5 178 L 204.5 178 L 203 179.5 L 202 197.5 L 203 198.5 L 203 229.5 L 204.5 231 L 209.5 230 L 210.5 231 L 239 231 Q 240.3 235.6 237.5 237 L 62.5 237 L 61 238.5 L 61 336.5 L 62.5 338 L 67.5 337 L 125.5 337 L 126.5 338 L 155 338 L 153.5 341 L 147.5 342 L 145.5 344 L 135.5 344 L 134 345.5 L 134 358.5 L 130.5 362 L 128 361.5 L 128 345.5 L 126.5 344 L 62.5 344 L 61 345.5 L 61 388.5 L 67.5 398 L 81.5 401 L 100 401 L 98.5 404 Q 90.4 404.4 88 410.5 Q 88.8 413.1 85.5 412 Q 82.6 415.6 74.5 414 L 65.5 412 L 57.5 406 Q 56.3 408.3 55 405.5 Q 49.1 398.9 47 388.5 L 47 167.5 L 49.5 165 Z M 63 178 L 61 180 L 61 230 L 63 231 L 68 230 L 127 230 L 127 185 L 128 180 L 127 178 L 63 178 Z M 136 178 L 134 180 L 134 230 L 136 231 L 141 230 L 196 230 L 196 185 L 197 180 L 196 178 L 136 178 Z " /><path fill="rgb(175,143,255)" stroke="rgb(175,143,255)" stroke-width="1" opacity="0.996078431372549" d="M 154.5 250 Q 163.3 248.3 165 253.5 L 164 256.5 L 167.5 261 Q 176.3 262.3 179.5 258 L 185 262.5 Q 182.5 264 186 265.5 L 183 270.5 L 183 275.5 L 187.5 281 L 191.5 280 L 192.5 283 L 194 283.5 Q 191.8 284.8 193 289.5 L 190.5 292 L 185 294.5 L 182 302.5 L 182 306.5 L 179.5 309 L 175.5 309 L 173.5 311 L 166.5 312 L 159 319.5 Q 159.9 322.9 154.5 321 Q 153.3 323.3 152 320.5 L 153 317.5 L 149.5 313 L 142.5 311 L 136.5 314 L 130 308.5 L 130 305.5 Q 133.8 304.7 133 299.5 L 133 297.5 L 129.5 292 L 125.5 293 Q 121 291 123 282.5 L 125.5 280 Q 130.6 280.6 132 277.5 L 133 270.5 L 130 264.5 Q 132.4 259.4 138.5 258 L 144.5 262 L 151 258.5 L 152 252.5 L 154.5 250 Z M 156 269 L 151 271 Q 143 275 141 285 L 143 296 L 151 303 L 152 302 L 162 304 Q 165 305 164 303 L 166 303 L 166 302 L 168 302 L 173 297 L 172 296 L 174 295 L 173 294 L 175 293 L 175 282 L 174 281 L 174 280 L 173 279 L 173 278 Q 169 268 156 269 Z " /><path fill="rgb(175,143,255)" stroke="rgb(175,143,255)" stroke-width="1" opacity="0.996078431372549" d="M 76.5 256 L 88.5 256 L 90 257.5 L 89 261.5 L 89 305.5 Q 90 308 94.5 307 L 95.5 306 L 119.5 306 Q 121.8 306.8 121 310.5 L 118.5 317 L 80.5 317 L 76.5 318 L 75 316.5 L 75 257.5 L 76.5 256 Z " /><path fill="rgb(175,143,255)" stroke="rgb(175,143,255)" stroke-width="1" opacity="0.996078431372549" d="M 95.5 358 Q 104.6 358.4 108 364.5 L 108 366.5 L 109 372.5 L 107 378.5 L 104.5 381 Q 101.5 384 95.5 384 L 91.5 383 L 85 377.5 Q 82.7 374.3 84 367.5 L 89.5 360 L 95.5 358 Z " /></svg>